<svg xmlns="http://www.w3.org/2000/svg" xmlns:xlink="http://www.w3.org/1999/xlink" version="1.1" width="1000" height="1000" viewBox="0 0 1000 1000" xml:space="preserve">
<desc>Created with Fabric.js 3.5.0</desc>
<defs>
</defs>
<rect x="0" y="0" width="100%" height="100%" fill="rgba(255,255,255,0)"/>
<g transform="matrix(1.382 0 0 1.382 500.0031 500.0034)" id="901244">
<g style="">
		<g transform="matrix(1.8182 0 0 1.8753 0.247 -13.2686)" id="OBJECTS">
<path style="stroke: none; stroke-width: 1; stroke-dasharray: none; stroke-linecap: butt; stroke-dashoffset: 0; stroke-linejoin: miter; stroke-miterlimit: 4; is-custom-font: none; font-file-url: none; fill: rgb(234,249,248); fill-rule: nonzero; opacity: 1;" transform=" translate(-253.6369, -237.8851)" d="M 417.757 232.272 c -23.343 34.949 -73.156 143.037 -60.903 183.151 l -178.707 0.041 c 0 0 -25.823 -19.226 -50.909 -52.653 c -4.559 -6.073 -9.093 -12.621 -13.439 -19.603 c -4.616 -7.399 -9.02 -15.289 -13.022 -23.638 c -11.631 -24.211 -19.93 -52.268 -20.266 -83.28 C 79.34 128.939 172.254 29.167 298.652 69.428 C 425.049 109.689 441.091 197.323 417.757 232.272 z" stroke-linecap="round"/>
</g>
		<g transform="matrix(1.8182 0 0 1.8753 8.7095 208.6257)" id="OBJECTS">
<path style="stroke: none; stroke-width: 1; stroke-dasharray: none; stroke-linecap: butt; stroke-dashoffset: 0; stroke-linejoin: miter; stroke-miterlimit: 4; is-custom-font: none; font-file-url: none; fill: rgb(224,60,3); fill-rule: nonzero; opacity: 1;" transform=" translate(-258.2925, -356.2143)" d="M 305.944 416.689 c -0.359 0 -0.715 -0.157 -0.957 -0.458 l -95.302 -118.494 c -0.425 -0.528 -0.341 -1.301 0.187 -1.727 c 0.528 -0.424 1.301 -0.34 1.726 0.187 L 306.9 414.691 c 0.425 0.528 0.341 1.301 -0.187 1.727 C 306.486 416.6 306.214 416.689 305.944 416.689 z" stroke-linecap="round"/>
</g>
		<g transform="matrix(1.8182 0 0 1.8753 -86.7996 208.6257)" id="OBJECTS">
<path style="stroke: none; stroke-width: 1; stroke-dasharray: none; stroke-linecap: butt; stroke-dashoffset: 0; stroke-linejoin: miter; stroke-miterlimit: 4; is-custom-font: none; font-file-url: none; fill: rgb(255,98,36); fill-rule: nonzero; opacity: 1;" transform=" translate(-205.7625, -356.2143)" d="M 158.111 416.689 c -0.27 0 -0.542 -0.089 -0.769 -0.271 c -0.528 -0.425 -0.612 -1.198 -0.187 -1.727 l 95.302 -118.494 c 0.427 -0.527 1.198 -0.611 1.726 -0.187 c 0.528 0.425 0.612 1.198 0.187 1.727 l -95.302 118.494 C 158.826 416.532 158.47 416.689 158.111 416.689 z" stroke-linecap="round"/>
</g>
		<g transform="matrix(1.8182 0 0 1.8753 -86.7996 208.6257)" id="OBJECTS">
<path style="stroke: none; stroke-width: 1; stroke-dasharray: none; stroke-linecap: butt; stroke-dashoffset: 0; stroke-linejoin: miter; stroke-miterlimit: 4; is-custom-font: none; font-file-url: none; fill: rgb(255,98,36); fill-rule: nonzero; opacity: 1;" transform=" translate(-205.7625, -356.2143)" d="M 253.415 416.689 c -0.359 0 -0.715 -0.157 -0.958 -0.458 l -95.302 -118.494 c -0.425 -0.528 -0.341 -1.301 0.187 -1.727 c 0.529 -0.424 1.301 -0.34 1.726 0.187 l 95.302 118.494 c 0.425 0.528 0.341 1.301 -0.187 1.727 C 253.957 416.6 253.685 416.689 253.415 416.689 z" stroke-linecap="round"/>
</g>
		<g transform="matrix(1.8182 0 0 1.8753 -182.9845 97.5192)" id="OBJECTS">
<path style="stroke: none; stroke-width: 1; stroke-dasharray: none; stroke-linecap: butt; stroke-dashoffset: 0; stroke-linejoin: miter; stroke-miterlimit: 4; is-custom-font: none; font-file-url: none; fill: rgb(224,60,3); fill-rule: nonzero; opacity: 1;" transform=" translate(-152.861, -296.967)" d="M 174.999 300.113 h -44.276 c -1.737 0 -3.146 -1.408 -3.146 -3.146 l 0 0 c 0 -1.737 1.408 -3.146 3.146 -3.146 h 44.276 c 1.737 0 3.146 1.408 3.146 3.146 l 0 0 C 178.145 298.704 176.736 300.113 174.999 300.113 z" stroke-linecap="round"/>
</g>
		<g transform="matrix(1.8182 0 0 1.8753 -29.012 97.5192)" id="OBJECTS">
<path style="stroke: none; stroke-width: 1; stroke-dasharray: none; stroke-linecap: butt; stroke-dashoffset: 0; stroke-linejoin: miter; stroke-miterlimit: 4; is-custom-font: none; font-file-url: none; fill: rgb(255,98,36); fill-rule: nonzero; opacity: 1;" transform=" translate(-237.5455, -296.967)" d="M 302.392 300.113 H 175.844 c -1.737 0 -3.145 -1.408 -3.145 -3.146 l 0 0 c 0 -1.737 1.408 -3.146 3.145 -3.146 h 126.548 V 300.113 z" stroke-linecap="round"/>
</g>
		<g transform="matrix(1.8182 0 0 1.8753 -86.7995 208.6231)" id="OBJECTS">
<path style="stroke: none; stroke-width: 1; stroke-dasharray: none; stroke-linecap: butt; stroke-dashoffset: 0; stroke-linejoin: miter; stroke-miterlimit: 4; is-custom-font: none; font-file-url: none; fill: rgb(224,60,3); fill-rule: nonzero; opacity: 1;" transform=" translate(-205.763, -356.214)" d="M 209.199 356.214 c 0 1.898 -1.538 3.436 -3.436 3.436 c -1.898 0 -3.436 -1.538 -3.436 -3.436 c 0 -1.898 1.538 -3.436 3.436 -3.436 C 207.661 352.778 209.199 354.316 209.199 356.214 z" stroke-linecap="round"/>
</g>
		<g transform="matrix(1.8182 0 0 1.8753 8.7078 208.6231)" id="OBJECTS">
<path style="stroke: none; stroke-width: 1; stroke-dasharray: none; stroke-linecap: butt; stroke-dashoffset: 0; stroke-linejoin: miter; stroke-miterlimit: 4; is-custom-font: none; font-file-url: none; fill: rgb(255,201,71); fill-rule: nonzero; opacity: 1;" transform=" translate(-258.292, -356.214)" d="M 261.728 356.214 c 0 1.898 -1.538 3.436 -3.436 3.436 c -1.898 0 -3.436 -1.538 -3.436 -3.436 c 0 -1.898 1.538 -3.436 3.436 -3.436 C 260.189 352.778 261.728 354.316 261.728 356.214 z" stroke-linecap="round"/>
</g>
		<g transform="matrix(1.8182 0 0 1.8753 -108.7245 -123.0825)" id="OBJECTS">
<path style="stroke: none; stroke-width: 1; stroke-dasharray: none; stroke-linecap: butt; stroke-dashoffset: 0; stroke-linejoin: miter; stroke-miterlimit: 4; is-custom-font: none; font-file-url: none; fill: rgb(32,195,197); fill-rule: nonzero; opacity: 1;" transform=" translate(-193.704, -179.329)" d="M 216.007 199.904 h -44.606 c -2.203 0 -3.988 -1.786 -3.988 -3.988 v -33.174 c 0 -2.203 1.785 -3.988 3.988 -3.988 h 44.606 c 2.203 0 3.988 1.786 3.988 3.988 v 33.174 C 219.995 198.118 218.21 199.904 216.007 199.904 z" stroke-linecap="round"/>
</g>
		<g transform="matrix(1.8182 0 0 1.8753 -108.7247 -123.0865)" id="OBJECTS">
<path style="stroke: none; stroke-width: 1; stroke-dasharray: none; stroke-linecap: butt; stroke-dashoffset: 0; stroke-linejoin: miter; stroke-miterlimit: 4; is-custom-font: none; font-file-url: none; fill: rgb(255,255,255); fill-rule: nonzero; opacity: 1;" transform=" translate(-193.704, -179.327)" d="M 205.115 176.925 h -1.651 c -0.253 -0.902 -0.627 -1.757 -1.114 -2.54 l 1.274 -1.274 c 0.486 -0.486 0.486 -1.273 0 -1.759 l -1.793 -1.793 c -0.486 -0.486 -1.273 -0.486 -1.759 0 l -1.354 1.354 c -0.748 -0.421 -1.55 -0.752 -2.397 -0.966 v -2.03 c 0 -0.687 -0.557 -1.243 -1.243 -1.243 h -2.535 c -0.687 0 -1.243 0.557 -1.243 1.243 v 2.053 c -0.822 0.212 -1.601 0.523 -2.327 0.924 l -1.486 -1.486 c -0.486 -0.486 -1.273 -0.486 -1.759 0 l -1.793 1.793 c -0.486 0.486 -0.486 1.273 0 1.759 l 1.376 1.376 c -0.46 0.732 -0.822 1.531 -1.082 2.375 h -1.936 c -0.687 0 -1.243 0.557 -1.243 1.243 v 2.535 c 0 0.687 0.557 1.243 1.243 1.243 h 1.696 c 0.191 0.937 0.513 1.83 0.953 2.655 l -1.158 1.158 c -0.486 0.486 -0.486 1.273 0 1.758 l 1.793 1.793 c 0.486 0.486 1.273 0.486 1.759 0 l 1.007 -1.007 c 0.839 0.547 1.763 0.968 2.744 1.241 v 1.407 c 0 0.687 0.557 1.243 1.243 1.243 h 2.535 c 0.687 0 1.243 -0.557 1.243 -1.243 v -1.313 c 1.016 -0.239 1.973 -0.626 2.844 -1.147 l 0.969 0.969 c 0.486 0.486 1.273 0.486 1.759 0 l 1.793 -1.793 c 0.486 -0.486 0.486 -1.273 0 -1.758 l -0.995 -0.995 c 0.493 -0.848 0.865 -1.773 1.093 -2.756 h 1.544 c 0.687 0 1.243 -0.557 1.243 -1.243 v -2.535 C 206.358 177.482 205.802 176.925 205.115 176.925 z M 195.059 185.941 c -4.503 0.852 -8.372 -3.017 -7.52 -7.52 c 0.476 -2.516 2.504 -4.544 5.02 -5.02 c 4.503 -0.852 8.372 3.017 7.52 7.52 C 199.603 183.437 197.575 185.466 195.059 185.941 z" stroke-linecap="round"/>
</g>
		<g transform="matrix(1.8182 0 0 1.8753 13.3773 -165.71)" id="OBJECTS">
<path style="stroke: none; stroke-width: 1; stroke-dasharray: none; stroke-linecap: butt; stroke-dashoffset: 0; stroke-linejoin: miter; stroke-miterlimit: 4; is-custom-font: none; font-file-url: none; fill: rgb(255,98,36); fill-rule: nonzero; opacity: 1;" transform=" translate(-260.86, -156.5975)" d="M 283.163 177.172 h -44.606 c -2.202 0 -3.988 -1.785 -3.988 -3.988 v -33.173 c 0 -2.202 1.786 -3.988 3.988 -3.988 h 44.606 c 2.203 0 3.988 1.786 3.988 3.988 v 33.173 C 287.151 175.387 285.365 177.172 283.163 177.172 z" stroke-linecap="round"/>
</g>
		<g transform="matrix(1.8182 0 0 1.8753 -7.7195 -166.4201)" id="OBJECTS">
<path style="stroke: none; stroke-width: 1; stroke-dasharray: none; stroke-linecap: butt; stroke-dashoffset: 0; stroke-linejoin: miter; stroke-miterlimit: 4; is-custom-font: none; font-file-url: none; fill: rgb(255,255,255); fill-rule: nonzero; opacity: 1;" transform=" translate(-249.257, -156.2191)" d="M 251.981 163.514 c -0.314 0 -0.628 -0.128 -0.868 -0.385 l -5.542 -5.931 c -0.48 -0.513 -0.48 -1.345 0 -1.858 l 5.636 -6.031 c 0.48 -0.513 1.257 -0.513 1.736 0 c 0.48 0.513 0.48 1.345 0 1.858 l -4.768 5.102 l 4.674 5.003 c 0.48 0.513 0.48 1.345 0 1.858 C 252.609 163.385 252.295 163.514 251.981 163.514 z" stroke-linecap="round"/>
</g>
		<g transform="matrix(1.8182 0 0 1.8753 34.4705 -166.421)" id="OBJECTS">
<path style="stroke: none; stroke-width: 1; stroke-dasharray: none; stroke-linecap: butt; stroke-dashoffset: 0; stroke-linejoin: miter; stroke-miterlimit: 4; is-custom-font: none; font-file-url: none; fill: rgb(255,255,255); fill-rule: nonzero; opacity: 1;" transform=" translate(-272.4615, -156.2186)" d="M 269.737 163.514 c -0.314 0 -0.628 -0.128 -0.868 -0.385 c -0.48 -0.513 -0.48 -1.345 0 -1.858 l 4.675 -5.003 l -4.769 -5.102 c -0.48 -0.513 -0.48 -1.345 0 -1.858 c 0.479 -0.513 1.256 -0.513 1.736 0 l 5.637 6.031 c 0.23 0.246 0.36 0.58 0.36 0.929 c 0 0.349 -0.129 0.683 -0.36 0.929 l -5.543 5.931 C 270.365 163.385 270.051 163.514 269.737 163.514 z" stroke-linecap="round"/>
</g>
		<g transform="matrix(1.8182 0 0 1.8753 13.3751 -165.7121)" id="OBJECTS">
<path style="stroke: none; stroke-width: 1; stroke-dasharray: none; stroke-linecap: butt; stroke-dashoffset: 0; stroke-linejoin: miter; stroke-miterlimit: 4; is-custom-font: none; font-file-url: none; fill: rgb(255,255,255); fill-rule: nonzero; opacity: 1;" transform=" translate(-260.859, -156.5967)" d="M 258.108 165.143 c -0.153 0 -0.31 -0.031 -0.462 -0.098 c -0.628 -0.273 -0.93 -1.04 -0.675 -1.712 l 5.501 -14.463 c 0.256 -0.671 0.968 -0.997 1.6 -0.722 c 0.628 0.273 0.93 1.04 0.675 1.712 l -5.501 14.463 C 259.052 164.834 258.593 165.143 258.108 165.143 z" stroke-linecap="round"/>
</g>
		<g transform="matrix(1.8182 0 0 1.8753 26.5233 -117.042)" id="OBJECTS">
<path style="stroke: none; stroke-width: 1; stroke-dasharray: none; stroke-linecap: butt; stroke-dashoffset: 0; stroke-linejoin: miter; stroke-miterlimit: 4; is-custom-font: none; font-file-url: none; fill: rgb(255,255,255); fill-rule: nonzero; opacity: 1;" transform=" translate(-268.09, -182.5505)" d="M 323.429 185.079 H 212.751 v -3.397 c 0 -0.917 0.743 -1.66 1.659 -1.66 h 107.358 c 0.917 0 1.66 0.743 1.66 1.66 V 185.079 z" stroke-linecap="round"/>
</g>
		<g transform="matrix(1.8182 0 0 1.8753 26.5243 -56.9725)" id="OBJECTS">
<path style="stroke: none; stroke-width: 1; stroke-dasharray: none; stroke-linecap: butt; stroke-dashoffset: 0; stroke-linejoin: miter; stroke-miterlimit: 4; is-custom-font: none; font-file-url: none; fill: rgb(56,56,115); fill-rule: nonzero; opacity: 1;" transform=" translate(-268.0905, -214.5825)" d="M 320.338 244.085 H 215.842 c -1.707 0 -3.09 -1.384 -3.09 -3.09 v -55.915 h 110.677 v 55.915 C 323.429 242.701 322.045 244.085 320.338 244.085 z" stroke-linecap="round"/>
</g>
		<g transform="matrix(1.8182 0 0 1.8753 116.0642 -117.0411)" id="OBJECTS">
<path style="stroke: none; stroke-width: 1; stroke-dasharray: none; stroke-linecap: butt; stroke-dashoffset: 0; stroke-linejoin: miter; stroke-miterlimit: 4; is-custom-font: none; font-file-url: none; fill: rgb(255,98,36); fill-rule: nonzero; opacity: 1;" transform=" translate(-317.338, -182.551)" d="M 318.116 182.551 c 0 0.43 -0.348 0.778 -0.778 0.778 c -0.43 0 -0.778 -0.348 -0.778 -0.778 c 0 -0.43 0.348 -0.778 0.778 -0.778 C 317.768 181.773 318.116 182.121 318.116 182.551 z" stroke-linecap="round"/>
</g>
		<g transform="matrix(1.8182 0 0 1.8753 106.3405 -117.0411)" id="OBJECTS">
<path style="stroke: none; stroke-width: 1; stroke-dasharray: none; stroke-linecap: butt; stroke-dashoffset: 0; stroke-linejoin: miter; stroke-miterlimit: 4; is-custom-font: none; font-file-url: none; fill: rgb(255,98,36); fill-rule: nonzero; opacity: 1;" transform=" translate(-311.99, -182.551)" d="M 312.768 182.551 c 0 0.43 -0.348 0.778 -0.778 0.778 c -0.43 0 -0.778 -0.348 -0.778 -0.778 c 0 -0.43 0.348 -0.778 0.778 -0.778 C 312.42 181.773 312.768 182.121 312.768 182.551 z" stroke-linecap="round"/>
</g>
		<g transform="matrix(1.8182 0 0 1.8753 96.6151 -117.0411)" id="OBJECTS">
<path style="stroke: none; stroke-width: 1; stroke-dasharray: none; stroke-linecap: butt; stroke-dashoffset: 0; stroke-linejoin: miter; stroke-miterlimit: 4; is-custom-font: none; font-file-url: none; fill: rgb(255,98,36); fill-rule: nonzero; opacity: 1;" transform=" translate(-306.641, -182.551)" d="M 307.419 182.551 c 0 0.43 -0.348 0.778 -0.778 0.778 c -0.43 0 -0.778 -0.348 -0.778 -0.778 c 0 -0.43 0.348 -0.778 0.778 -0.778 C 307.071 181.773 307.419 182.121 307.419 182.551 z" stroke-linecap="round"/>
</g>
		<g transform="matrix(1.8182 0 0 1.8753 -7.7889 -99.3536)" id="OBJECTS">
<path style="stroke: none; stroke-width: 1; stroke-dasharray: none; stroke-linecap: butt; stroke-dashoffset: 0; stroke-linejoin: miter; stroke-miterlimit: 4; is-custom-font: none; font-file-url: none; fill: rgb(32,195,197); fill-rule: nonzero; opacity: 1;" transform=" translate(-249.2185, -191.983)" d="M 279.948 193.053 h -61.459 c -0.591 0 -1.07 -0.479 -1.07 -1.07 l 0 0 c 0 -0.591 0.479 -1.07 1.07 -1.07 h 61.459 c 0.591 0 1.07 0.479 1.07 1.07 l 0 0 C 281.017 192.574 280.538 193.053 279.948 193.053 z" stroke-linecap="round"/>
</g>
		<g transform="matrix(1.8182 0 0 1.8753 -7.7889 -86.5868)" id="OBJECTS">
<path style="stroke: none; stroke-width: 1; stroke-dasharray: none; stroke-linecap: butt; stroke-dashoffset: 0; stroke-linejoin: miter; stroke-miterlimit: 4; is-custom-font: none; font-file-url: none; fill: rgb(32,195,197); fill-rule: nonzero; opacity: 1;" transform=" translate(-249.2185, -198.791)" d="M 279.948 199.861 h -61.459 c -0.591 0 -1.07 -0.479 -1.07 -1.07 l 0 0 c 0 -0.591 0.479 -1.07 1.07 -1.07 h 61.459 c 0.591 0 1.07 0.479 1.07 1.07 l 0 0 C 281.017 199.382 280.538 199.861 279.948 199.861 z" stroke-linecap="round"/>
</g>
		<g transform="matrix(1.8182 0 0 1.8753 -34.4438 -73.8219)" id="OBJECTS">
<path style="stroke: none; stroke-width: 1; stroke-dasharray: none; stroke-linecap: butt; stroke-dashoffset: 0; stroke-linejoin: miter; stroke-miterlimit: 4; is-custom-font: none; font-file-url: none; fill: rgb(32,195,197); fill-rule: nonzero; opacity: 1;" transform=" translate(-234.5585, -205.598)" d="M 250.628 206.668 h -32.139 c -0.591 0 -1.07 -0.479 -1.07 -1.07 l 0 0 c 0 -0.591 0.479 -1.07 1.07 -1.07 h 32.139 c 0.591 0 1.07 0.479 1.07 1.07 l 0 0 C 251.698 206.189 251.219 206.668 250.628 206.668 z" stroke-linecap="round"/>
</g>
		<g transform="matrix(1.8182 0 0 1.8753 -7.7889 -48.292)" id="OBJECTS">
<path style="stroke: none; stroke-width: 1; stroke-dasharray: none; stroke-linecap: butt; stroke-dashoffset: 0; stroke-linejoin: miter; stroke-miterlimit: 4; is-custom-font: none; font-file-url: none; fill: rgb(255,98,36); fill-rule: nonzero; opacity: 1;" transform=" translate(-249.2185, -219.212)" d="M 279.948 220.282 h -61.459 c -0.591 0 -1.07 -0.479 -1.07 -1.07 l 0 0 c 0 -0.591 0.479 -1.07 1.07 -1.07 h 61.459 c 0.591 0 1.07 0.479 1.07 1.07 l 0 0 C 281.017 219.803 280.538 220.282 279.948 220.282 z" stroke-linecap="round"/>
</g>
		<g transform="matrix(1.8182 0 0 1.8753 -34.4438 -35.5271)" id="OBJECTS">
<path style="stroke: none; stroke-width: 1; stroke-dasharray: none; stroke-linecap: butt; stroke-dashoffset: 0; stroke-linejoin: miter; stroke-miterlimit: 4; is-custom-font: none; font-file-url: none; fill: rgb(255,98,36); fill-rule: nonzero; opacity: 1;" transform=" translate(-234.5585, -226.019)" d="M 250.628 227.089 h -32.139 c -0.591 0 -1.07 -0.479 -1.07 -1.07 l 0 0 c 0 -0.591 0.479 -1.07 1.07 -1.07 h 32.139 c 0.591 0 1.07 0.479 1.07 1.07 l 0 0 C 251.698 226.61 251.219 227.089 250.628 227.089 z" stroke-linecap="round"/>
</g>
		<g transform="matrix(1.8182 0 0 1.8753 -34.4438 -22.7622)" id="OBJECTS">
<path style="stroke: none; stroke-width: 1; stroke-dasharray: none; stroke-linecap: butt; stroke-dashoffset: 0; stroke-linejoin: miter; stroke-miterlimit: 4; is-custom-font: none; font-file-url: none; fill: rgb(32,195,197); fill-rule: nonzero; opacity: 1;" transform=" translate(-234.5585, -232.826)" d="M 250.628 233.896 h -32.139 c -0.591 0 -1.07 -0.479 -1.07 -1.07 l 0 0 c 0 -0.591 0.479 -1.07 1.07 -1.07 h 32.139 c 0.591 0 1.07 0.479 1.07 1.07 l 0 0 C 251.698 233.417 251.219 233.896 250.628 233.896 z" stroke-linecap="round"/>
</g>
		<g transform="matrix(1.8182 0 0 1.8753 27.0861 -73.8219)" id="OBJECTS">
<path style="stroke: none; stroke-width: 1; stroke-dasharray: none; stroke-linecap: butt; stroke-dashoffset: 0; stroke-linejoin: miter; stroke-miterlimit: 4; is-custom-font: none; font-file-url: none; fill: rgb(255,255,255); fill-rule: nonzero; opacity: 1;" transform=" translate(-268.4, -205.598)" d="M 279.948 206.668 h -23.096 c -0.591 0 -1.07 -0.479 -1.07 -1.07 l 0 0 c 0 -0.591 0.479 -1.07 1.07 -1.07 h 23.096 c 0.591 0 1.07 0.479 1.07 1.07 l 0 0 C 281.017 206.189 280.538 206.668 279.948 206.668 z" stroke-linecap="round"/>
</g>
		<g transform="matrix(1.8182 0 0 1.8753 87.3279 -86.5865)" id="OBJECTS">
<path style="stroke: none; stroke-width: 1; stroke-dasharray: none; stroke-linecap: butt; stroke-dashoffset: 0; stroke-linejoin: miter; stroke-miterlimit: 4; is-custom-font: none; font-file-url: none; fill: rgb(255,98,36); fill-rule: nonzero; opacity: 1;" transform=" translate(-301.533, -198.791)" d="M 310.455 191.382 l -16.331 16.331 c -0.418 0.418 -1.095 0.418 -1.513 0 l 0 0 c -0.418 -0.418 -0.418 -1.095 0 -1.513 l 16.331 -16.331 c 0.418 -0.418 1.095 -0.418 1.513 0 l 0 0 C 310.873 190.287 310.873 190.964 310.455 191.382 z" stroke-linecap="round"/>
</g>
		<g transform="matrix(0.4194 -1.8246 1.769 0.4326 87.3144 -42.5357)" id="OBJECTS">
<ellipse style="stroke: none; stroke-width: 1; stroke-dasharray: none; stroke-linecap: butt; stroke-dashoffset: 0; stroke-linejoin: miter; stroke-miterlimit: 4; is-custom-font: none; font-file-url: none; fill: rgb(255,98,36); fill-rule: nonzero; opacity: 1;" cx="0" cy="0" rx="9.63" ry="9.63"/>
</g>
		<g transform="matrix(1.8182 0 0 1.8753 75.1242 -29.9611)" id="OBJECTS">
<path style="stroke: none; stroke-width: 1; stroke-dasharray: none; stroke-linecap: butt; stroke-dashoffset: 0; stroke-linejoin: miter; stroke-miterlimit: 4; is-custom-font: none; font-file-url: none; fill: rgb(32,195,197); fill-rule: nonzero; opacity: 1;" transform=" translate(-294.821, -228.987)" d="M 300.273 228.987 c 0 3.011 -2.441 5.452 -5.452 5.452 c -3.011 0 -5.452 -2.441 -5.452 -5.452 c 0 -3.011 2.441 -5.452 5.452 -5.452 C 297.833 223.535 300.273 225.976 300.273 228.987 z" stroke-linecap="round"/>
</g>
		<g transform="matrix(1.8182 0 0 1.8753 -57.8258 5.4103)" id="OBJECTS">
<polyline style="stroke: none; stroke-width: 1; stroke-dasharray: none; stroke-linecap: butt; stroke-dashoffset: 0; stroke-linejoin: miter; stroke-miterlimit: 4; is-custom-font: none; font-file-url: none; fill: rgb(56,56,115); fill-rule: nonzero; opacity: 1;" points="-8.9475,-9.735 -8.9475,9.735 8.9475,-8.16 "/>
</g>
		<g transform="matrix(1.8182 0 0 1.8753 -60.1245 59.1592)" id="OBJECTS">
<polygon style="stroke: none; stroke-width: 1; stroke-dasharray: none; stroke-linecap: butt; stroke-dashoffset: 0; stroke-linejoin: miter; stroke-miterlimit: 4; is-custom-font: none; font-file-url: none; fill: rgb(134,191,188); fill-rule: nonzero; opacity: 1;" points="-26.73,-13.663 12.532,-13.663 26.73,13.663 -12.532,13.663 "/>
</g>
		<g transform="matrix(1.8182 0 0 1.8753 -60.1263 59.1601)" id="OBJECTS">
<path style="stroke: none; stroke-width: 1; stroke-dasharray: none; stroke-linecap: butt; stroke-dashoffset: 0; stroke-linejoin: miter; stroke-miterlimit: 4; is-custom-font: none; font-file-url: none; fill: rgb(255,255,255); fill-rule: nonzero; opacity: 1;" transform=" translate(-220.433, -276.5115)" d="M 208.696 288.153 l -11.756 -22.626 c -0.247 -0.474 0.098 -1.041 0.632 -1.041 h 33.966 c 0.266 0 0.51 0.148 0.632 0.384 l 11.756 22.626 c 0.247 0.474 -0.098 1.041 -0.632 1.041 h -33.966 C 209.063 288.537 208.819 288.389 208.696 288.153 z" stroke-linecap="round"/>
</g>
		<g transform="matrix(1.8182 0 0 1.8753 -54.0019 88.201)" id="OBJECTS">
<rect style="stroke: none; stroke-width: 1; stroke-dasharray: none; stroke-linecap: butt; stroke-dashoffset: 0; stroke-linejoin: miter; stroke-miterlimit: 4; is-custom-font: none; font-file-url: none; fill: rgb(184,227,226); fill-rule: nonzero; opacity: 1;" x="-15.8995" y="-1.824" rx="0" ry="0" width="31.799" height="3.648"/>
</g>
		<g transform="matrix(1.8182 0 0 1.8753 -3.9492 88.201)" id="OBJECTS">
<path style="stroke: none; stroke-width: 1; stroke-dasharray: none; stroke-linecap: butt; stroke-dashoffset: 0; stroke-linejoin: miter; stroke-miterlimit: 4; is-custom-font: none; font-file-url: none; fill: rgb(159,204,201); fill-rule: nonzero; opacity: 1;" transform=" translate(-251.3305, -291.998)" d="M 267.02 290.174 h -31.379 c -1.007 0 -1.824 0.816 -1.824 1.824 l 0 0 c 0 1.007 0.817 1.824 1.824 1.824 h 31.379 c 1.007 0 1.824 -0.816 1.824 -1.824 l 0 0 C 268.844 290.991 268.027 290.174 267.02 290.174 z" stroke-linecap="round"/>
</g>
		<g transform="matrix(1.8182 0 0 1.8753 -96.8885 62.5797)" id="OBJECTS">
<path style="stroke: none; stroke-width: 1; stroke-dasharray: none; stroke-linecap: butt; stroke-dashoffset: 0; stroke-linejoin: miter; stroke-miterlimit: 4; is-custom-font: none; font-file-url: none; fill: rgb(184,227,226); fill-rule: nonzero; opacity: 1;" transform=" translate(-200.214, -278.335)" d="M 207.902 290.174 l -14.198 -27.326 l -0.711 0.534 c -0.46 0.345 -0.601 0.972 -0.333 1.481 l 15.243 28.959 V 290.174 z" stroke-linecap="round"/>
</g>
		<g transform="matrix(1.8182 0 0 1.8753 -60.1022 88.5413)" id="OBJECTS">
<rect style="stroke: none; stroke-width: 1; stroke-dasharray: none; stroke-linecap: butt; stroke-dashoffset: 0; stroke-linejoin: miter; stroke-miterlimit: 4; is-custom-font: none; font-file-url: none; fill: rgb(159,204,201); fill-rule: nonzero; opacity: 1;" x="-1.7505" y="-0.3035" rx="0" ry="0" width="3.501" height="0.607"/>
</g>
		<g transform="matrix(1.8182 0 0 1.8753 -52.1022 88.5413)" id="OBJECTS">
<rect style="stroke: none; stroke-width: 1; stroke-dasharray: none; stroke-linecap: butt; stroke-dashoffset: 0; stroke-linejoin: miter; stroke-miterlimit: 4; is-custom-font: none; font-file-url: none; fill: rgb(159,204,201); fill-rule: nonzero; opacity: 1;" x="-1.7505" y="-0.3035" rx="0" ry="0" width="3.501" height="0.607"/>
</g>
		<g transform="matrix(1.8182 0 0 1.8753 -44.1022 88.5413)" id="OBJECTS">
<rect style="stroke: none; stroke-width: 1; stroke-dasharray: none; stroke-linecap: butt; stroke-dashoffset: 0; stroke-linejoin: miter; stroke-miterlimit: 4; is-custom-font: none; font-file-url: none; fill: rgb(159,204,201); fill-rule: nonzero; opacity: 1;" x="-1.7505" y="-0.3035" rx="0" ry="0" width="3.501" height="0.607"/>
</g>
		<g transform="matrix(1.8182 0 0 1.8753 -16.8222 228.7172)" id="OBJECTS">
<path style="stroke: none; stroke-width: 1; stroke-dasharray: none; stroke-linecap: butt; stroke-dashoffset: 0; stroke-linejoin: miter; stroke-miterlimit: 4; is-custom-font: none; font-file-url: none; fill: rgb(56,56,115); fill-rule: nonzero; opacity: 1;" transform=" translate(-244.2502, -366.9288)" d="M 279.483 343.659 c 0 0 -32.567 25.356 -37.732 31.798 c -1.948 2.439 -5.345 6.712 -8.864 11.09 c -5.779 7.194 -11.909 14.692 -12.637 14.872 c -1.162 0.295 -10.935 -7.145 -11.23 -8.749 c -0.18 -0.999 8.717 -16.271 16.419 -28.549 c 4.69 -7.465 8.93 -13.832 10.419 -15.207 c 3.937 -3.65 28.164 -16.484 28.164 -16.484 L 279.483 343.659 z" stroke-linecap="round"/>
</g>
		<g transform="matrix(1.8182 0 0 1.8753 -24.2163 235.8058)" id="OBJECTS">
<path style="stroke: rgb(0,0,0); stroke-width: 0.8185; stroke-dasharray: none; stroke-linecap: round; stroke-dashoffset: 0; stroke-linejoin: miter; stroke-miterlimit: 10; is-custom-font: none; font-file-url: none; fill: none; fill-rule: nonzero; opacity: 0.15;" transform=" translate(-240.1835, -370.709)" d="M 217.334 396.009 c 0 0 30.425 -43.306 45.699 -50.6" stroke-linecap="round"/>
</g>
		<g transform="matrix(1.8182 0 0 1.8753 77.5623 -33.2037)" id="OBJECTS">
<path style="stroke: none; stroke-width: 1; stroke-dasharray: none; stroke-linecap: butt; stroke-dashoffset: 0; stroke-linejoin: miter; stroke-miterlimit: 4; is-custom-font: none; font-file-url: none; fill: rgb(56,36,36); fill-rule: nonzero; opacity: 1;" transform=" translate(-296.1618, -227.2576)" d="M 313.425 232.46 c -0.344 0.786 -0.737 1.604 -1.179 2.439 c -2.382 4.551 -0.622 9.11 -3.339 10.272 c -0.164 0.066 -0.344 0.131 -0.548 0.172 c -3.503 0.777 -11.573 -3.888 -11.925 -6.221 c -0.352 -2.333 2.488 -6.327 0 -6.81 c -2.488 -0.483 -3.83 3.7 -3.83 3.7 c -2.046 0.213 -2.775 -3.217 -6.13 -3.217 c -0.475 0 -0.941 0.066 -1.391 0.18 c -1.58 0.393 -2.963 1.367 -3.847 2.12 c -0.655 0.548 -1.031 0.982 -1.031 0.982 s -2.987 -1.891 -2.848 -5.615 c 0.237 -5.901 2.414 -10.206 7.661 -11.082 c 0.581 -6.564 5.983 -10.067 13.202 -10.288 c 6.327 -0.196 7.276 5.492 7.424 6.908 c -0.057 -1.056 -0.352 -4.526 -1.858 -6.908 c 3.167 -0.139 5.959 2.12 5.23 9.486 c 0.729 -2.193 3.282 -3.577 5.247 -1.973 c -1.817 0 -3.569 3.061 -3.569 3.061 s 2.136 1.367 3.593 3.896 C 315.496 225.651 315.038 228.736 313.425 232.46 z" stroke-linecap="round"/>
</g>
		<g transform="matrix(1.8182 0 0 1.8753 79.0752 -5.0239)" id="OBJECTS">
<path style="stroke: none; stroke-width: 1; stroke-dasharray: none; stroke-linecap: butt; stroke-dashoffset: 0; stroke-linejoin: miter; stroke-miterlimit: 4; is-custom-font: none; font-file-url: none; fill: rgb(255,173,148); fill-rule: nonzero; opacity: 1;" transform=" translate(-296.994, -242.2849)" d="M 308.907 245.171 l -0.082 1.08 l -0.278 3.83 c 0 0 -5.827 4.985 -9.134 0 c -0.025 -0.033 -0.041 -0.066 -0.074 -0.098 c -1.023 -1.522 -1.948 -2.054 -2.791 -2.153 c -1.825 -0.221 -3.298 1.563 -4.821 -0.368 c -4.354 -5.525 -6.09 -11.925 -6.646 -14.487 c 0.45 -0.115 0.917 -0.18 1.391 -0.18 c 3.356 0 4.084 3.429 6.13 3.217 c 0 0 1.342 -4.182 3.83 -3.7 c 2.488 0.483 -0.352 4.477 0 6.81 c 0.156 1.04 1.85 2.546 3.994 3.822 c 2.496 1.498 5.607 2.685 7.579 2.455 c 0.123 -0.016 0.237 -0.033 0.352 -0.057 C 308.563 245.302 308.743 245.237 308.907 245.171 z" stroke-linecap="round"/>
</g>
		<g transform="matrix(1.8182 0 0 1.8753 92.4315 8.2735)" id="OBJECTS">
<path style="stroke: none; stroke-width: 1; stroke-dasharray: none; stroke-linecap: butt; stroke-dashoffset: 0; stroke-linejoin: miter; stroke-miterlimit: 4; is-custom-font: none; font-file-url: none; fill: rgb(0,0,0); fill-rule: nonzero; opacity: 0.25;" transform=" translate(-304.34, -249.3759)" d="M 309.816 252.3 c -2.627 1.792 -7.44 2.087 -7.44 2.087 l -3.937 -0.581 c 0 0 -1.645 -2.39 -0.876 -3.724 c 0.147 -0.262 0.516 -0.622 1.04 -1.048 c 1.056 -0.868 2.758 -1.981 4.518 -2.897 c 1.817 -0.941 3.691 -1.686 5.042 -1.768 C 311.469 244.181 312.443 250.5 309.816 252.3 z" stroke-linecap="round"/>
</g>
		<g transform="matrix(1.8182 0 0 1.8753 78.0579 71.7457)" id="OBJECTS">
<path style="stroke: none; stroke-width: 1; stroke-dasharray: none; stroke-linecap: butt; stroke-dashoffset: 0; stroke-linejoin: miter; stroke-miterlimit: 4; is-custom-font: none; font-file-url: none; fill: rgb(32,195,197); fill-rule: nonzero; opacity: 1;" transform=" translate(-296.4344, -283.2225)" d="M 309.038 316.142 c -5.86 1.129 -18.26 -2.325 -24.194 -4.993 c -1.751 -0.786 -2.947 -1.506 -3.233 -2.013 c -1.138 -2.005 0.008 -3.544 2.832 -9.912 c 0.319 -0.72 0.655 -1.498 1.015 -2.341 c 1.915 -4.51 1.923 -14.127 1.915 -22.418 c -0.025 -7.096 -0.057 -13.218 1.072 -14.307 c 2.447 -2.357 14.659 -10.075 14.659 -10.075 l 2.431 12.67 c 0 0 1.375 6.433 2.824 14.831 C 311.027 293.044 313.957 315.192 309.038 316.142 z" stroke-linecap="round"/>
</g>
		<g transform="matrix(1.8182 0 0 1.8753 31.0752 204.9299)" id="OBJECTS">
<path style="stroke: none; stroke-width: 1; stroke-dasharray: none; stroke-linecap: butt; stroke-dashoffset: 0; stroke-linejoin: miter; stroke-miterlimit: 4; is-custom-font: none; font-file-url: none; fill: rgb(56,56,115); fill-rule: nonzero; opacity: 1;" transform=" translate(-270.5937, -354.2438)" d="M 313.122 321.781 c 0 0.581 -5.836 14.192 -10.73 16.14 c -4.894 1.948 -34.392 -0.196 -34.392 -0.196 l -14.585 9.535 l 3.053 28.729 l 2.128 20.02 l 0.065 0.647 c -4.461 2.914 -15.698 3.699 -16.91 1.187 c -0.008 -0.008 -0.008 -0.016 -0.008 -0.016 c -1.17 -2.529 -19.062 -56.401 -12.056 -65.74 c 6.998 -9.331 51.924 -22.95 51.924 -22.95 c 1.17 0.745 2.529 1.416 4.01 2.013 c 4.993 2.046 11.336 3.331 16.165 4.084 c 1.858 0.286 3.487 0.499 4.731 0.647 c 1.572 0.188 2.521 0.262 2.521 0.262 S 313.122 321.191 313.122 321.781 z" stroke-linecap="round"/>
</g>
		<g transform="matrix(1.8182 0 0 1.8753 -21.7931 301.4516)" id="OBJECTS">
<path style="stroke: none; stroke-width: 1; stroke-dasharray: none; stroke-linecap: butt; stroke-dashoffset: 0; stroke-linejoin: miter; stroke-miterlimit: 4; is-custom-font: none; font-file-url: none; fill: rgb(12,32,89); fill-rule: nonzero; opacity: 1;" transform=" translate(-241.5163, -405.7155)" d="M 260.511 415.423 h -37.928 c -0.188 -0.671 0.065 -1.351 0.638 -2.038 c 1.539 -1.85 5.394 -3.708 9.11 -5.312 c 3.528 -1.522 6.916 -2.832 8.054 -3.732 c 2.676 -2.12 1.44 -6.245 1.367 -6.499 c 0.409 0.843 1.956 1.318 4.002 1.457 c 4.019 0.286 9.953 -0.712 12.907 -2.644 l -0.065 -0.647 c 1.129 2.161 1.661 12.842 1.842 17.376 C 260.486 414.637 260.511 415.423 260.511 415.423 z" stroke-linecap="round"/>
</g>
		<g transform="matrix(1.8182 0 0 1.8753 -26.2931 297.8177)" id="OBJECTS">
<path style="stroke: none; stroke-width: 1; stroke-dasharray: none; stroke-linecap: butt; stroke-dashoffset: 0; stroke-linejoin: miter; stroke-miterlimit: 4; is-custom-font: none; font-file-url: none; fill: rgb(46,71,128); fill-rule: nonzero; opacity: 1;" transform=" translate(-239.0415, -403.7778)" d="M 245.753 399.299 c -0.115 1.809 -0.376 4.739 -0.9 5.525 c -0.777 1.171 -9.142 5.255 -10.305 4.862 c -0.753 -0.245 -1.67 -1.064 -2.218 -1.612 c 3.528 -1.522 6.916 -2.832 8.054 -3.732 c 2.676 -2.12 1.44 -6.245 1.367 -6.499 C 242.16 398.685 243.707 399.16 245.753 399.299 z" stroke-linecap="round"/>
</g>
		<g transform="matrix(1.8182 0 0 1.8753 -21.7931 317.7446)" id="OBJECTS">
<path style="stroke: none; stroke-width: 1; stroke-dasharray: none; stroke-linecap: butt; stroke-dashoffset: 0; stroke-linejoin: miter; stroke-miterlimit: 4; is-custom-font: none; font-file-url: none; fill: rgb(46,71,128); fill-rule: nonzero; opacity: 1;" transform=" translate(-241.5163, -414.404)" d="M 260.511 415.423 h -37.928 c -0.188 -0.671 0.065 -1.351 0.638 -2.038 h 37.216 C 260.486 414.637 260.511 415.423 260.511 415.423 z" stroke-linecap="round"/>
</g>
		<g transform="matrix(1.8182 0 0 1.8753 -89.2356 298.3066)" id="OBJECTS">
<path style="stroke: none; stroke-width: 1; stroke-dasharray: none; stroke-linecap: butt; stroke-dashoffset: 0; stroke-linejoin: miter; stroke-miterlimit: 4; is-custom-font: none; font-file-url: none; fill: rgb(12,32,89); fill-rule: nonzero; opacity: 1;" transform=" translate(-204.423, -404.0383)" d="M 220.25 401.419 c 0 0 -2.881 7.596 -5.377 11.614 c -0.99 1.604 -1.932 2.644 -2.595 2.39 c -2.333 -0.876 -25.774 -20.806 -23.531 -22.263 c 0.327 -0.213 0.851 -0.36 1.506 -0.442 c 2.038 -0.262 5.418 0.024 8.545 0.344 c 2.685 0.278 5.181 0.581 6.482 0.581 c 3.307 0 3.74 -0.974 3.74 -0.974 c 0.074 0.385 0.696 1.113 1.62 1.997 C 213.538 397.416 219.366 401.64 220.25 401.419 z" stroke-linecap="round"/>
</g>
		<g transform="matrix(1.8182 0 0 1.8753 -88.729 280.5802)" id="OBJECTS">
<path style="stroke: none; stroke-width: 1; stroke-dasharray: none; stroke-linecap: butt; stroke-dashoffset: 0; stroke-linejoin: miter; stroke-miterlimit: 4; is-custom-font: none; font-file-url: none; fill: rgb(46,71,128); fill-rule: nonzero; opacity: 1;" transform=" translate(-204.7017, -394.5858)" d="M 210.641 394.666 c -4.968 3.29 -10.149 1.309 -11.172 0.556 c -0.753 -0.548 -0.753 -1.572 -0.671 -2.161 c 2.685 0.278 5.181 0.581 6.482 0.581 c 3.307 0 3.74 -0.974 3.74 -0.974 C 209.094 393.054 209.716 393.782 210.641 394.666 z" stroke-linecap="round"/>
</g>
		<g transform="matrix(1.8182 0 0 1.8753 -94.1257 298.4026)" id="OBJECTS">
<path style="stroke: none; stroke-width: 1; stroke-dasharray: none; stroke-linecap: butt; stroke-dashoffset: 0; stroke-linejoin: miter; stroke-miterlimit: 4; is-custom-font: none; font-file-url: none; fill: rgb(46,71,128); fill-rule: nonzero; opacity: 1;" transform=" translate(-201.7335, -404.0896)" d="M 214.872 413.033 c -0.99 1.604 -1.932 2.644 -2.595 2.39 c -2.333 -0.876 -25.774 -20.806 -23.531 -22.263 c 0.327 -0.213 0.851 -0.36 1.506 -0.442 L 214.872 413.033 z" stroke-linecap="round"/>
</g>
		<g transform="matrix(1.8182 0 0 1.8753 5.9493 82.9679)" id="OBJECTS">
<path style="stroke: none; stroke-width: 1; stroke-dasharray: none; stroke-linecap: butt; stroke-dashoffset: 0; stroke-linejoin: miter; stroke-miterlimit: 4; is-custom-font: none; font-file-url: none; fill: rgb(255,173,148); fill-rule: nonzero; opacity: 1;" transform=" translate(-256.7746, -289.2073)" d="M 284.86 291.317 c -1.833 2.554 -5.115 6.45 -7.816 6.057 c -0.098 -0.016 -0.205 -0.033 -0.336 -0.057 c -5.156 -0.909 -35.481 -8.512 -36.913 -8.799 c -1.457 -0.286 -11.663 -0.385 -11.082 -1.457 c 0.581 -1.072 6.417 -4.469 7.972 -4.387 c 1.555 0.082 7.686 1.858 13.808 1.662 c 6.13 -0.188 22.173 0 22.173 0 l 0.778 -1.342 l 1.146 -1.981 C 274.269 286.955 281.431 291.8 284.86 291.317 z" stroke-linecap="round"/>
</g>
		<g transform="matrix(1.8182 0 0 1.8753 60.5462 137.7559)" id="OBJECTS">
<path style="stroke: rgb(0,0,0); stroke-width: 0.8185; stroke-dasharray: none; stroke-linecap: round; stroke-dashoffset: 0; stroke-linejoin: miter; stroke-miterlimit: 10; is-custom-font: none; font-file-url: none; fill: none; fill-rule: nonzero; opacity: 0.15;" transform=" translate(-286.8032, -318.4235)" d="M 284.86 313.464 c 0 0 -1.397 7.439 4.047 9.919" stroke-linecap="round"/>
</g>
		<g transform="matrix(1.8182 0 0 1.8753 17.3281 211.4616)" id="OBJECTS">
<path style="stroke: rgb(0,0,0); stroke-width: 0.8185; stroke-dasharray: none; stroke-linecap: round; stroke-dashoffset: 0; stroke-linejoin: miter; stroke-miterlimit: 10; is-custom-font: none; font-file-url: none; fill: none; fill-rule: nonzero; opacity: 0.15;" transform=" translate(-263.033, -357.727)" d="M 282.002 319.445 c 0 0 -36.023 15.365 -37.752 20.13 c -1.729 4.765 9.164 56.434 9.164 56.434" stroke-linecap="round"/>
</g>
		<g transform="matrix(1.8182 0 0 1.8753 51.2928 188.7415)" id="OBJECTS">
<path style="stroke: none; stroke-width: 1; stroke-dasharray: none; stroke-linecap: butt; stroke-dashoffset: 0; stroke-linejoin: miter; stroke-miterlimit: 4; is-custom-font: none; font-file-url: none; fill: rgb(0,0,0); fill-rule: nonzero; opacity: 0.15;" transform=" translate(-281.7135, -345.6115)" d="M 313.122 321.781 c 0 0.581 -5.836 14.192 -10.73 16.14 c -4.894 1.948 -34.392 -0.196 -34.392 -0.196 l -14.585 9.535 l 3.053 28.729 c 0 0 -6.163 -32.813 -6.163 -34.957 c 0 -1.833 40.744 -13.546 51.482 -25.798 c 4.207 0.663 7.252 0.909 7.252 0.909 S 313.122 321.191 313.122 321.781 z" stroke-linecap="round"/>
</g>
		<g transform="matrix(1.8182 0 0 1.8753 67.2552 73.1187)" id="OBJECTS">
<path style="stroke: none; stroke-width: 1; stroke-dasharray: none; stroke-linecap: butt; stroke-dashoffset: 0; stroke-linejoin: miter; stroke-miterlimit: 4; is-custom-font: none; font-file-url: none; fill: rgb(0,0,0); fill-rule: nonzero; opacity: 0.25;" transform=" translate(-290.4931, -283.955)" d="M 293.913 286.963 c -2.529 3.585 -6.605 8.136 -9.47 12.261 c 0.319 -0.72 0.655 -1.498 1.015 -2.341 c 1.915 -4.51 1.923 -14.127 1.915 -22.418 l 8.733 -5.779 C 296.106 268.686 297.997 281.176 293.913 286.963 z" stroke-linecap="round"/>
</g>
		<g transform="matrix(1.8182 0 0 1.8753 58.1102 57.6432)" id="OBJECTS">
<path style="stroke: none; stroke-width: 1; stroke-dasharray: none; stroke-linecap: butt; stroke-dashoffset: 0; stroke-linejoin: miter; stroke-miterlimit: 4; is-custom-font: none; font-file-url: none; fill: rgb(22,151,153); fill-rule: nonzero; opacity: 1;" transform=" translate(-285.4632, -275.7025)" d="M 286.456 290.212 c -0.376 0.344 -0.761 0.687 -1.146 1.007 c -0.139 0.049 -0.286 0.082 -0.45 0.098 c -3.429 0.483 -10.591 -4.363 -10.272 -10.305 c 0.025 -0.442 0.376 -1.326 0.949 -2.48 c 2.93 -5.909 11.745 -19.062 13.366 -18.457 c 0 0 5.664 0.876 7.203 8.61 C 297.547 275.946 292.349 284.753 286.456 290.212 z" stroke-linecap="round"/>
</g>
		<g transform="matrix(1.8182 0 0 1.8753 77.3935 105.4661)" id="OBJECTS">
<path style="stroke: none; stroke-width: 1; stroke-dasharray: none; stroke-linecap: butt; stroke-dashoffset: 0; stroke-linejoin: miter; stroke-miterlimit: 4; is-custom-font: none; font-file-url: none; fill: rgb(0,0,0); fill-rule: nonzero; opacity: 0.25;" transform=" translate(-296.069, -301.2045)" d="M 306.517 315.88 c -1.244 -0.147 -2.873 -0.36 -4.731 -0.647 c -4.829 -0.753 -11.172 -2.038 -16.165 -4.084 c 4.403 -0.156 13.824 -3.053 14.962 -24.62 c 0.516 4.035 1.293 8.217 2.374 12.498 C 304.406 304.716 305.772 310.715 306.517 315.88 z" stroke-linecap="round"/>
</g>
		<g transform="matrix(1.8182 0 0 1.8753 85.2151 1.9248)" id="OBJECTS">
<path style="stroke: none; stroke-width: 1; stroke-dasharray: none; stroke-linecap: butt; stroke-dashoffset: 0; stroke-linejoin: miter; stroke-miterlimit: 4; is-custom-font: none; font-file-url: none; fill: rgb(0,0,0); fill-rule: nonzero; opacity: 0.25;" transform=" translate(-300.371, -245.9905)" d="M 304.193 244.738 c -0.45 0.524 -0.802 0.998 -1.072 1.4 c -1.76 0.917 -3.462 2.03 -4.518 2.897 c -0.737 -0.81 -1.416 -1.13 -2.054 -1.203 l 3.88 -4.886 C 301.606 243.657 302.924 244.287 304.193 244.738 z" stroke-linecap="round"/>
</g>
		<g transform="matrix(1.8182 0 0 1.8753 46.5805 82.9679)" id="OBJECTS">
<path style="stroke: none; stroke-width: 1; stroke-dasharray: none; stroke-linecap: butt; stroke-dashoffset: 0; stroke-linejoin: miter; stroke-miterlimit: 4; is-custom-font: none; font-file-url: none; fill: rgb(0,0,0); fill-rule: nonzero; opacity: 0.25;" transform=" translate(-279.122, -289.2073)" d="M 284.86 291.317 c -1.833 2.554 -5.115 6.45 -7.816 6.057 c -0.098 -0.016 -0.205 -0.033 -0.336 -0.057 c -3.339 -4.829 -3.462 -11.156 -3.266 -14.323 l 1.146 -1.981 C 274.269 286.955 281.431 291.8 284.86 291.317 z" stroke-linecap="round"/>
</g>
		<g transform="matrix(1.8182 0 0 1.8753 79.6862 -16.271)" id="OBJECTS">
<path style="stroke: none; stroke-width: 1; stroke-dasharray: none; stroke-linecap: butt; stroke-dashoffset: 0; stroke-linejoin: miter; stroke-miterlimit: 4; is-custom-font: none; font-file-url: none; fill: rgb(0,0,0); fill-rule: nonzero; opacity: 0.25;" transform=" translate(-297.33, -236.2873)" d="M 313.425 232.46 c -0.344 0.786 -0.737 1.604 -1.179 2.439 c -1.171 2.234 -1.334 4.461 -1.531 6.302 c -0.393 -0.303 -0.794 -0.581 -1.195 -0.819 c -2.529 1.506 -4.232 3.069 -5.328 4.354 l -0.008 0.008 c -3.569 -1.277 -7.505 -4.01 -7.751 -5.623 c -0.352 -2.333 2.488 -6.327 0 -6.81 c -2.488 -0.483 -3.83 3.7 -3.83 3.7 c -2.046 0.213 -2.775 -3.217 -6.13 -3.217 c -0.475 0 -0.941 0.066 -1.391 0.18 c -1.58 0.393 -2.963 1.367 -3.847 2.12 c 0 0 3.781 -5.312 9.715 -4.24 c 0 0 -0.868 -1.653 -4.862 -1.457 c 8.365 -2.725 13.709 -1.653 16.288 1.359 C 304.479 233.221 309.415 236.266 313.425 232.46 z" stroke-linecap="round"/>
</g>
		<g transform="matrix(1.8182 0 0 1.8753 144.1684 86.6661)" id="OBJECTS">
<path style="stroke: none; stroke-width: 1; stroke-dasharray: none; stroke-linecap: butt; stroke-dashoffset: 0; stroke-linejoin: miter; stroke-miterlimit: 4; is-custom-font: none; font-file-url: none; fill: rgb(184,227,226); fill-rule: nonzero; opacity: 1;" transform=" translate(-332.795, -291.1785)" d="M 330.433 347.26 h -29.179 c 0 0 23.147 -6.81 23.147 -52.71 c 0 -0.589 0 -1.17 -0.008 -1.752 c -0.237 -30.676 -6.793 -47.594 -14.872 -52.415 c 2.529 -1.498 5.893 -2.93 10.337 -3.921 c 1.94 -0.442 4.076 -0.794 6.442 -1.039 c 19.979 -2.038 35.939 5.795 37.838 14.659 C 366.029 258.946 354.349 347.26 330.433 347.26 z" stroke-linecap="round"/>
</g>
		<g transform="matrix(1.8182 0 0 1.8753 64.373 91.6243)" id="OBJECTS">
<path style="stroke: none; stroke-width: 1; stroke-dasharray: none; stroke-linecap: butt; stroke-dashoffset: 0; stroke-linejoin: miter; stroke-miterlimit: 4; is-custom-font: none; font-file-url: none; fill: rgb(134,191,188); fill-rule: nonzero; opacity: 1;" transform=" translate(-288.9075, -293.8225)" d="M 324.401 294.55 c 0 45.9 -23.147 52.71 -23.147 52.71 h -47.84 l 1.989 -1.416 L 268 337.725 l 25.283 -1.751 c 1.359 -5.639 5.058 -5.828 10.698 -6.417 c 3.282 -0.336 3.601 -5.877 2.603 -13.202 c -0.728 -5.271 -2.136 -11.467 -3.626 -17.327 c -1.08 -4.281 -1.858 -8.463 -2.374 -12.498 c -0.614 -4.723 -0.884 -9.232 -0.908 -13.48 c -0.074 -9.674 1.105 -17.941 2.349 -23.916 c 0.115 -0.581 0.237 -1.138 0.36 -1.67 c 0 -0.016 0.008 -0.041 0.008 -0.057 c 0.115 -0.254 0.614 -1.285 1.793 -2.66 l 0.008 -0.008 c 1.097 -1.285 2.799 -2.848 5.328 -4.354 c 0.401 0.237 0.802 0.516 1.195 0.819 c 7.522 5.729 13.448 22.451 13.677 51.597 C 324.401 293.38 324.401 293.961 324.401 294.55 z" stroke-linecap="round"/>
</g>
		<g transform="matrix(1.8182 0 0 1.8753 80.8095 255.7449)" id="OBJECTS">
<path style="stroke: none; stroke-width: 1; stroke-dasharray: none; stroke-linecap: butt; stroke-dashoffset: 0; stroke-linejoin: miter; stroke-miterlimit: 4; is-custom-font: none; font-file-url: none; fill: rgb(184,227,226); fill-rule: nonzero; opacity: 1;" transform=" translate(-297.9477, -381.3415)" d="M 315.169 415.423 h -34.442 c -1.179 0 -1.694 -1.49 -0.761 -2.218 l 8.618 -6.744 c 3.822 -2.996 6.057 -7.587 6.057 -12.441 v -46.76 h 6.613 v 46.76 c 0 4.854 2.234 9.445 6.065 12.441 l 8.61 6.744 C 316.863 413.933 316.347 415.423 315.169 415.423 z" stroke-linecap="round"/>
</g>
		<g transform="matrix(1.8182 0 0 1.8753 160.4832 -12.7773)" id="OBJECTS">
<path style="stroke: rgb(0,0,0); stroke-width: 0.8185; stroke-dasharray: none; stroke-linecap: round; stroke-dashoffset: 0; stroke-linejoin: miter; stroke-miterlimit: 10; is-custom-font: none; font-file-url: none; fill: none; fill-rule: nonzero; opacity: 0.25;" transform=" translate(-341.7685, -238.1505)" d="M 341.437 237.185 c 0 0 0.251 0.643 0.663 1.931" stroke-linecap="round"/>
</g>
		<g transform="matrix(1.8182 0 0 1.8753 152.0792 90.3255)" id="OBJECTS">
<path style="stroke: rgb(0,0,0); stroke-width: 0.8185; stroke-dasharray: 4.1525 4.1525; stroke-linecap: round; stroke-dashoffset: 0; stroke-linejoin: miter; stroke-miterlimit: 10; is-custom-font: none; font-file-url: none; fill: none; fill-rule: nonzero; opacity: 0.25;" transform=" translate(-337.1462, -293.13)" d="M 343.259 243.099 c 1.17 4.388 2.691 11.224 3.898 20.527 c 3.132 24.155 -0.049 58.058 -21.053 79.535" stroke-linecap="round"/>
</g>
		<g transform="matrix(1.8182 0 0 1.8753 127.9405 188.1985)" id="OBJECTS">
<path style="stroke: rgb(0,0,0); stroke-width: 0.8185; stroke-dasharray: none; stroke-linecap: round; stroke-dashoffset: 0; stroke-linejoin: miter; stroke-miterlimit: 10; is-custom-font: none; font-file-url: none; fill: none; fill-rule: nonzero; opacity: 0.25;" transform=" translate(-323.87, -345.3225)" d="M 324.621 344.627 c -0.491 0.47 -0.992 0.934 -1.502 1.391" stroke-linecap="round"/>
</g>
		<g transform="matrix(1.8182 0 0 1.8753 80.8088 206.4132)" id="OBJECTS">
<path style="stroke: none; stroke-width: 1; stroke-dasharray: none; stroke-linecap: butt; stroke-dashoffset: 0; stroke-linejoin: miter; stroke-miterlimit: 4; is-custom-font: none; font-file-url: none; fill: rgb(0,0,0); fill-rule: nonzero; opacity: 0.15;" transform=" translate(-297.9475, -355.0355)" d="M 301.254 347.26 v 12.768 c -2.292 1.195 -4.616 2.112 -6.613 2.783 V 347.26 H 301.254 z" stroke-linecap="round"/>
</g>
		<g transform="matrix(1.8182 0 0 1.8753 51.7429 122.2505)" id="OBJECTS">
<path style="stroke: none; stroke-width: 1; stroke-dasharray: none; stroke-linecap: butt; stroke-dashoffset: 0; stroke-linejoin: miter; stroke-miterlimit: 4; is-custom-font: none; font-file-url: none; fill: rgb(0,0,0); fill-rule: nonzero; opacity: 0.15;" transform=" translate(-281.961, -310.1545)" d="M 310.397 327.42 c -1.555 4.862 -11.27 3.991 -12.449 7.587 c -2.501 7.63 -3.888 4.272 -13.505 5.246 c -5.5 0.557 -9.494 4.084 -11.901 7.006 h -19.128 l 1.989 -1.416 L 268 337.725 l 25.283 -1.751 c 1.359 -5.639 5.058 -5.828 10.698 -6.417 c 3.282 -0.336 3.601 -5.877 2.603 -13.202 c -0.728 -5.271 -2.136 -11.467 -3.626 -17.327 c -1.08 -4.281 -1.858 -8.463 -2.374 -12.498 c -0.614 -4.723 -0.884 -9.232 -0.908 -13.48 C 303.415 292.545 311.551 323.819 310.397 327.42 z" stroke-linecap="round"/>
</g>
		<g transform="matrix(1.8182 0 0 1.8753 111.5907 87.9451)" id="OBJECTS">
<path style="stroke: none; stroke-width: 1; stroke-dasharray: none; stroke-linecap: butt; stroke-dashoffset: 0; stroke-linejoin: miter; stroke-miterlimit: 4; is-custom-font: none; font-file-url: none; fill: rgb(0,0,0); fill-rule: nonzero; opacity: 0.15;" transform=" translate(-314.8775, -291.8605)" d="M 324.401 294.55 c 0 -0.589 0 -1.17 -0.008 -1.752 c -0.237 -30.676 -6.793 -47.594 -14.872 -52.415 c 2.529 -1.498 5.893 -2.93 10.337 -3.921 c -1.334 1.923 -2.725 4.813 -2.071 7.898 c 1.171 5.459 14.397 26.461 9.339 60.109 c -3.65 24.276 -2.439 36.905 1.375 42.79 h -27.247 C 301.254 347.26 324.401 340.45 324.401 294.55 z" stroke-linecap="round"/>
</g>
		<g transform="matrix(1.8182 0 0 1.8753 -192.503 41.432)" id="OBJECTS">
<path style="stroke: none; stroke-width: 1; stroke-dasharray: none; stroke-linecap: butt; stroke-dashoffset: 0; stroke-linejoin: miter; stroke-miterlimit: 4; is-custom-font: none; font-file-url: none; fill: rgb(0,0,0); fill-rule: nonzero; opacity: 0.25;" transform=" translate(-147.626, -267.058)" d="M 157.456 269.546 c -0.016 1.064 -0.115 2.071 -0.311 2.963 h -9.388 c -2.758 -1.833 -7.26 -5.459 -9.961 -10.902 c 2.513 2.734 6.802 6.065 11.172 7.08 C 152.783 269.57 155.623 269.194 157.456 269.546 z" stroke-linecap="round"/>
</g>
		<g transform="matrix(1.8182 0 0 1.8753 -160.0117 -2.0201)" id="OBJECTS">
<path style="stroke: none; stroke-width: 1; stroke-dasharray: none; stroke-linecap: butt; stroke-dashoffset: 0; stroke-linejoin: miter; stroke-miterlimit: 4; is-custom-font: none; font-file-url: none; fill: rgb(32,195,197); fill-rule: nonzero; opacity: 1;" transform=" translate(-165.4961, -243.8862)" d="M 179.26 232.272 c -1.048 3.806 -5.852 11.189 -10.239 19.095 c -4.796 8.627 -9.085 17.867 -7.407 23.736 c 0.417 1.473 0.606 2.554 0.606 3.331 c 0.016 2.554 -1.923 1.76 -3.88 0.311 c -1.997 -1.482 -4.019 -3.642 -4.019 -3.642 l 0.147 -11.377 c 0 0 -6.45 -5.926 -1.154 -18.891 c 0.336 -0.818 0.72 -1.67 1.154 -2.554 c 7.293 -14.733 18.227 -30.194 7.874 -34.573 C 176.641 206.834 181.454 224.308 179.26 232.272 z" stroke-linecap="round"/>
</g>
		<g transform="matrix(1.8182 0 0 1.8753 -164.5715 -14.7544)" id="OBJECTS">
<path style="stroke: none; stroke-width: 1; stroke-dasharray: none; stroke-linecap: butt; stroke-dashoffset: 0; stroke-linejoin: miter; stroke-miterlimit: 4; is-custom-font: none; font-file-url: none; fill: rgb(0,0,0); fill-rule: nonzero; opacity: 0.53;" transform=" translate(-162.9883, -237.0957)" d="M 162.342 207.71 c 2.678 0.583 5.012 2.378 6.492 4.668 c 0.4 0.559 0.682 1.186 0.999 1.793 c 0.239 0.64 0.543 1.262 0.706 1.928 c 0.191 0.658 0.378 1.318 0.475 1.998 l 0.178 1.012 l 0.064 1.034 c -0.057 2.768 -0.937 5.412 -1.849 7.978 c -0.953 2.564 -2.053 5.068 -3.19 7.551 c -2.277 4.964 -4.732 9.841 -6.898 14.837 c -1.072 2.499 -2.101 5.024 -2.861 7.619 c -0.388 1.294 -0.68 2.612 -0.851 3.933 c -0.166 1.316 -0.154 2.67 0.266 3.864 l 0.004 0.011 c 0.075 0.213 -0.037 0.447 -0.25 0.522 c -0.213 0.075 -0.447 -0.037 -0.522 -0.25 c 0 -0.001 -0.001 -0.005 -0.002 -0.006 c -0.47 -1.402 -0.443 -2.858 -0.257 -4.234 c 0.195 -1.381 0.515 -2.732 0.926 -4.046 c 0.809 -2.634 1.877 -5.161 2.986 -7.66 c 2.239 -4.991 4.754 -9.836 7.089 -14.763 c 1.166 -2.464 2.294 -4.946 3.273 -7.485 c 0.94 -2.539 1.843 -5.158 1.932 -7.871 l -0.049 -1.009 l -0.164 -1.005 c -0.088 -0.675 -0.265 -1.331 -0.445 -1.986 c -0.152 -0.663 -0.447 -1.281 -0.675 -1.92 c -0.306 -0.605 -0.579 -1.231 -0.968 -1.79 C 167.309 210.145 165.012 208.327 162.342 207.71 z" stroke-linecap="round"/>
</g>
		<g transform="matrix(1.8182 0 0 1.8753 -157.6521 39.5671)" id="OBJECTS">
<path style="stroke: none; stroke-width: 1; stroke-dasharray: none; stroke-linecap: butt; stroke-dashoffset: 0; stroke-linejoin: miter; stroke-miterlimit: 4; is-custom-font: none; font-file-url: none; fill: rgb(22,151,153); fill-rule: nonzero; opacity: 1;" transform=" translate(-166.794, -266.0634)" d="M 172.696 255.263 c -4.371 11.524 0 20.265 -6.564 21.51 c -3.004 0.573 -4.33 -1.653 -4.878 -4.24 c -0.655 -3.061 -0.221 -6.621 -0.221 -6.621 s 1.113 -2.848 3.454 -5.615 C 166.394 258.046 169.103 255.852 172.696 255.263 z" stroke-linecap="round"/>
</g>
		<g transform="matrix(1.8182 0 0 1.8753 -194.5415 20.5721)" id="OBJECTS">
<path style="stroke: none; stroke-width: 1; stroke-dasharray: none; stroke-linecap: butt; stroke-dashoffset: 0; stroke-linejoin: miter; stroke-miterlimit: 4; is-custom-font: none; font-file-url: none; fill: rgb(184,227,226); fill-rule: nonzero; opacity: 1;" transform=" translate(-146.5048, -255.934)" d="M 157.456 269.546 c -0.025 2.685 -0.63 4.96 -1.874 6.155 c -0.123 0.123 -0.246 0.229 -0.36 0.319 c -3.102 2.513 -5.083 -2.087 -5.083 -2.087 s -8.25 -4.068 -12.343 -12.326 c -3.135 -6.343 -3.83 -15.166 3.544 -26.51 c 1.08 8.078 5.508 13.579 9.895 18.801 c 0 0.008 0 0.008 0 0.008 c 0.548 0.655 1.089 1.293 1.629 1.94 C 155.901 259.486 157.497 265.085 157.456 269.546 z" stroke-linecap="round"/>
</g>
		<g transform="matrix(1.8182 0 0 1.8753 -192.5184 18.0268)" id="OBJECTS">
<path style="stroke: none; stroke-width: 1; stroke-dasharray: none; stroke-linecap: butt; stroke-dashoffset: 0; stroke-linejoin: miter; stroke-miterlimit: 4; is-custom-font: none; font-file-url: none; fill: rgb(0,0,0); fill-rule: nonzero; opacity: 0.53;" transform=" translate(-147.6175, -254.5767)" d="M 141.337 235.097 c -0.714 3.474 -0.886 7.054 -0.556 10.572 c 0.372 3.506 1.337 6.992 3.241 9.961 c 1.833 3.018 4.379 5.504 6.688 8.218 c 1.149 1.361 2.253 2.805 3.026 4.465 c 0.783 1.65 1.14 3.527 0.991 5.367 c -0.018 0.225 -0.216 0.393 -0.441 0.375 c -0.225 -0.018 -0.393 -0.216 -0.375 -0.441 c 0 -0.002 0.001 -0.006 0.001 -0.008 c 0.168 -1.702 -0.122 -3.426 -0.829 -4.997 c -0.697 -1.578 -1.738 -3.004 -2.846 -4.369 c -2.226 -2.724 -4.759 -5.292 -6.565 -8.397 c -1.881 -3.062 -2.79 -6.622 -3.095 -10.154 C 140.314 242.141 140.556 238.558 141.337 235.097 z" stroke-linecap="round"/>
</g>
		<g transform="matrix(1.8182 0 0 1.8753 -157.3686 38.312)" id="OBJECTS">
<path style="stroke: none; stroke-width: 1; stroke-dasharray: none; stroke-linecap: butt; stroke-dashoffset: 0; stroke-linejoin: miter; stroke-miterlimit: 4; is-custom-font: none; font-file-url: none; fill: rgb(0,0,0); fill-rule: nonzero; opacity: 0.25;" transform=" translate(-166.9499, -265.3941)" d="M 172.699 255.263 c -1.253 1.45 -2.419 2.973 -3.534 4.528 c -1.106 1.561 -2.166 3.156 -3.115 4.813 c -1.893 3.298 -3.503 6.836 -4.032 10.555 l -0.002 0.014 c -0.032 0.224 -0.239 0.38 -0.463 0.348 c -0.224 -0.032 -0.38 -0.239 -0.348 -0.463 c 0.001 -0.004 0.002 -0.01 0.002 -0.015 c 0.697 -3.883 2.469 -7.39 4.492 -10.65 c 1.015 -1.635 2.137 -3.198 3.301 -4.724 C 170.173 258.15 171.395 256.668 172.699 255.263 z" stroke-linecap="round"/>
</g>
		<g transform="matrix(1.8182 0 0 1.8753 -175.4266 72.6413)" id="OBJECTS">
<path style="stroke: none; stroke-width: 1; stroke-dasharray: none; stroke-linecap: butt; stroke-dashoffset: 0; stroke-linejoin: miter; stroke-miterlimit: 4; is-custom-font: none; font-file-url: none; fill: rgb(184,227,226); fill-rule: nonzero; opacity: 1;" transform=" translate(-157.018, -283.7005)" d="M 170.044 275.389 l -2.799 17.188 c -0.139 0.72 -0.769 1.244 -1.506 1.244 h -17.442 c -0.737 0 -1.367 -0.524 -1.506 -1.244 l -2.275 -13.955 l -0.524 -3.233 c -0.172 -0.941 0.548 -1.809 1.506 -1.809 h 23.04 C 169.496 273.581 170.216 274.448 170.044 275.389 z" stroke-linecap="round"/>
</g>
		<g transform="matrix(1.8182 0 0 1.8753 -175.4265 57.6399)" id="OBJECTS">
<path style="stroke: none; stroke-width: 1; stroke-dasharray: none; stroke-linecap: butt; stroke-dashoffset: 0; stroke-linejoin: miter; stroke-miterlimit: 4; is-custom-font: none; font-file-url: none; fill: rgb(134,191,188); fill-rule: nonzero; opacity: 1;" transform=" translate(-157.018, -275.701)" d="M 172.696 278.893 H 141.34 l 0.827 -4.682 c 0.18 -0.982 1.031 -1.702 2.03 -1.702 h 25.651 c 0.99 0 1.85 0.72 2.022 1.702 L 172.696 278.893 z" stroke-linecap="round"/>
</g>
		<g transform="matrix(1.8182 0 0 1.8753 -169.773 25.7054)" id="OBJECTS">
<path style="stroke: none; stroke-width: 1; stroke-dasharray: none; stroke-linecap: butt; stroke-dashoffset: 0; stroke-linejoin: miter; stroke-miterlimit: 4; is-custom-font: none; font-file-url: none; fill: rgb(0,0,0); fill-rule: nonzero; opacity: 0.25;" transform=" translate(-160.1275, -258.6715)" d="M 161.033 265.911 c 0 0 -0.434 3.544 0.213 6.597 h -4.101 c 0.196 -0.892 0.295 -1.899 0.311 -2.963 c 0.041 -4.461 -1.555 -10.059 -4.592 -13.701 c -0.54 -0.647 -1.08 -1.285 -1.629 -1.94 c 0 0 0 0 0 -0.008 c 0.066 -2.513 0.638 -5.525 2.079 -9.061 c 0.237 4.133 1.252 11.32 5.377 12.081 c 3.135 0.573 7.219 -2.537 10.329 -5.549 c -1.645 2.955 -3.225 5.983 -4.534 8.93 C 162.146 263.063 161.033 265.911 161.033 265.911 z" stroke-linecap="round"/>
</g>
		<g transform="matrix(1.8182 0 0 1.8753 -185.2184 77.6238)" id="OBJECTS">
<path style="stroke: none; stroke-width: 1; stroke-dasharray: none; stroke-linecap: butt; stroke-dashoffset: 0; stroke-linejoin: miter; stroke-miterlimit: 4; is-custom-font: none; font-file-url: none; fill: rgb(0,0,0); fill-rule: nonzero; opacity: 0.25;" transform=" translate(-151.6325, -286.3575)" d="M 158.708 293.822 h -10.411 c -0.737 0 -1.367 -0.524 -1.506 -1.244 l -2.234 -13.685 h 8.995 c -0.221 1.915 -0.491 5.492 0.188 8.267 C 154.272 289.361 156.204 292.193 158.708 293.822 z" stroke-linecap="round"/>
</g>
		<g transform="matrix(1.8182 0 0 1.8753 -69.499 -212.4557)" id="OBJECTS">
<path style="stroke: none; stroke-width: 1; stroke-dasharray: none; stroke-linecap: butt; stroke-dashoffset: 0; stroke-linejoin: miter; stroke-miterlimit: 4; is-custom-font: none; font-file-url: none; fill: rgb(56,56,115); fill-rule: nonzero; opacity: 1;" transform=" translate(-215.278, -131.67)" d="M 237.581 152.245 h -44.606 c -2.202 0 -3.988 -1.786 -3.988 -3.988 v -33.174 c 0 -2.202 1.786 -3.988 3.988 -3.988 h 44.606 c 2.203 0 3.988 1.786 3.988 3.988 v 33.174 C 241.569 150.459 239.784 152.245 237.581 152.245 z" stroke-linecap="round"/>
</g>
		<g transform="matrix(1.8182 0 0 1.8753 -91.6476 -212.4562)" id="OBJECTS">
<path style="stroke: none; stroke-width: 1; stroke-dasharray: none; stroke-linecap: butt; stroke-dashoffset: 0; stroke-linejoin: miter; stroke-miterlimit: 4; is-custom-font: none; font-file-url: none; fill: rgb(255,255,255); fill-rule: nonzero; opacity: 1;" transform=" translate(-203.0965, -131.67)" d="M 201.229 125.65 v 4.429 c 0 0.355 0.288 0.642 0.642 0.642 h 2.452 c 0.355 0 0.642 -0.288 0.642 -0.642 v -4.429 c 0 -0.355 0.288 -0.642 0.642 -0.642 h 0.237 c 0.355 0 0.642 0.288 0.642 0.642 v 12.04 c 0 0.355 -0.288 0.642 -0.642 0.642 h -0.237 c -0.355 0 -0.642 -0.288 -0.642 -0.642 v -4.943 c 0 -0.355 -0.288 -0.642 -0.642 -0.642 h -2.452 c -0.355 0 -0.642 0.288 -0.642 0.642 v 4.943 c 0 0.355 -0.288 0.642 -0.642 0.642 h -0.238 c -0.355 0 -0.642 -0.288 -0.642 -0.642 v -12.04 c 0 -0.355 0.288 -0.642 0.642 -0.642 h 0.238 C 200.941 125.008 201.229 125.295 201.229 125.65 z" stroke-linecap="round"/>
</g>
		<g transform="matrix(1.8182 0 0 1.8753 -76.9522 -212.4562)" id="OBJECTS">
<path style="stroke: none; stroke-width: 1; stroke-dasharray: none; stroke-linecap: butt; stroke-dashoffset: 0; stroke-linejoin: miter; stroke-miterlimit: 4; is-custom-font: none; font-file-url: none; fill: rgb(255,255,255); fill-rule: nonzero; opacity: 1;" transform=" translate(-211.179, -131.67)" d="M 209.776 126.372 h -1.147 c -0.355 0 -0.642 -0.288 -0.642 -0.642 v -0.08 c 0 -0.355 0.288 -0.642 0.642 -0.642 h 5.1 c 0.355 0 0.642 0.288 0.642 0.642 v 0.08 c 0 0.355 -0.288 0.642 -0.642 0.642 h -1.147 c -0.355 0 -0.642 0.288 -0.642 0.642 v 10.676 c 0 0.355 -0.288 0.642 -0.642 0.642 h -0.238 c -0.355 0 -0.642 -0.288 -0.642 -0.642 v -10.676 C 210.418 126.66 210.131 126.372 209.776 126.372 z" stroke-linecap="round"/>
</g>
		<g transform="matrix(1.8182 0 0 1.8753 -60.0095 -212.4572)" id="OBJECTS">
<path style="stroke: none; stroke-width: 1; stroke-dasharray: none; stroke-linecap: butt; stroke-dashoffset: 0; stroke-linejoin: miter; stroke-miterlimit: 4; is-custom-font: none; font-file-url: none; fill: rgb(255,255,255); fill-rule: nonzero; opacity: 1;" transform=" translate(-220.4974, -131.6695)" d="M 223.839 132.599 c -0.099 -1.76 -0.198 -3.717 -0.138 -5.219 h -0.079 c -0.297 1.482 -0.653 3.064 -1.068 4.626 l -1.641 6.247 h -0.969 l -1.562 -5.99 c -0.435 -1.7 -0.83 -3.341 -1.087 -4.883 h -0.059 c 0 1.562 -0.08 3.42 -0.158 5.318 l -0.229 5.021 c -0.016 0.343 -0.298 0.613 -0.642 0.613 h -0.069 c -0.37 0 -0.663 -0.311 -0.641 -0.68 l 0.714 -12.04 c 0.02 -0.339 0.301 -0.604 0.641 -0.604 h 0.537 c 0.293 0 0.549 0.199 0.622 0.483 l 1.439 5.606 c 0.454 1.76 0.791 3.064 1.067 4.587 h 0.059 c 0.257 -1.523 0.554 -2.788 0.989 -4.587 l 1.382 -5.601 c 0.071 -0.287 0.328 -0.489 0.624 -0.489 h 0.59 c 0.34 0 0.622 0.266 0.641 0.605 l 0.696 12.04 c 0.021 0.369 -0.272 0.679 -0.641 0.679 h -0.131 c -0.343 0 -0.625 -0.269 -0.642 -0.611 L 223.839 132.599 z" stroke-linecap="round"/>
</g>
		<g transform="matrix(1.8182 0 0 1.8753 -42.2768 -212.4571)" id="OBJECTS">
<path style="stroke: none; stroke-width: 1; stroke-dasharray: none; stroke-linecap: butt; stroke-dashoffset: 0; stroke-linejoin: miter; stroke-miterlimit: 4; is-custom-font: none; font-file-url: none; fill: rgb(255,255,255); fill-rule: nonzero; opacity: 1;" transform=" translate(-230.2505, -131.6695)" d="M 228.254 125.008 h 0.238 c 0.355 0 0.642 0.288 0.642 0.642 v 10.755 c 0 0.355 0.288 0.642 0.642 0.642 h 2.471 c 0.355 0 0.642 0.288 0.642 0.642 l 0 0 c 0 0.355 -0.288 0.642 -0.642 0.642 h -3.993 c -0.355 0 -0.642 -0.288 -0.642 -0.642 v -12.04 C 227.611 125.295 227.899 125.008 228.254 125.008 z" stroke-linecap="round"/>
</g>
		<g transform="matrix(1.8182 0 0 1.8753 13.376 -242.9188)" id="OBJECTS">
<path style="stroke: none; stroke-width: 1; stroke-dasharray: none; stroke-linecap: butt; stroke-dashoffset: 0; stroke-linejoin: miter; stroke-miterlimit: 4; is-custom-font: none; font-file-url: none; fill: rgb(56,56,115); fill-rule: nonzero; opacity: 1;" transform=" translate(-260.8595, -115.4255)" d="M 257.916 114.62 c 1.669 0 2.063 -1.123 2.063 -2.124 c 0 -0.88 -0.091 -1.73 -0.182 -2.579 c -0.091 -0.91 -0.182 -1.73 -0.182 -2.671 c 0 -2.731 1.669 -3.884 3.824 -3.884 h 0.364 v 1.578 h -0.455 c -1.275 0 -1.791 0.911 -1.791 2.276 c 0 0.82 0.092 1.578 0.182 2.307 c 0.061 0.789 0.151 1.517 0.151 2.246 c 0.03 2.367 -0.789 3.186 -2.094 3.551 v 0.061 c 1.305 0.395 2.124 1.214 2.094 3.611 c 0 0.759 -0.091 1.517 -0.151 2.276 c -0.091 0.759 -0.182 1.518 -0.182 2.337 c 0 1.366 0.455 2.306 1.821 2.306 h 0.425 v 1.578 h -0.395 c -2.003 0 -3.793 -1.001 -3.793 -3.884 c 0 -0.91 0.092 -1.821 0.182 -2.701 c 0.091 -0.88 0.182 -1.76 0.182 -2.61 c 0 -0.971 -0.395 -2.155 -2.063 -2.155 V 114.62 z" stroke-linecap="round"/>
</g>
		<g transform="matrix(1.8182 0 0 1.8753 58.9215 -242.9206)" id="OBJECTS">
<path style="stroke: none; stroke-width: 1; stroke-dasharray: none; stroke-linecap: butt; stroke-dashoffset: 0; stroke-linejoin: miter; stroke-miterlimit: 4; is-custom-font: none; font-file-url: none; fill: rgb(56,56,115); fill-rule: nonzero; opacity: 1;" transform=" translate(-285.9095, -115.4245)" d="M 288.853 116.138 c -1.669 0 -2.063 1.184 -2.063 2.155 c 0 0.85 0.091 1.73 0.182 2.61 c 0.091 0.88 0.182 1.79 0.182 2.701 c 0 2.883 -1.791 3.884 -3.793 3.884 h -0.395 v -1.578 h 0.425 c 1.366 -0.152 1.821 -0.941 1.821 -2.306 c 0 -0.819 -0.091 -1.578 -0.152 -2.337 c -0.091 -0.759 -0.182 -1.517 -0.182 -2.276 c -0.03 -2.397 0.789 -3.217 2.094 -3.611 v -0.061 c -1.305 -0.364 -2.124 -1.183 -2.094 -3.551 c 0 -0.728 0.091 -1.457 0.182 -2.246 c 0.061 -0.728 0.152 -1.487 0.152 -2.307 c 0 -1.365 -0.517 -2.124 -1.791 -2.276 h -0.455 v -1.578 h 0.364 c 2.154 0 3.824 1.153 3.824 3.884 c 0 0.94 -0.091 1.76 -0.182 2.671 c -0.091 0.85 -0.182 1.699 -0.182 2.579 c 0 1.001 0.395 2.124 2.063 2.124 V 116.138 z" stroke-linecap="round"/>
</g>
		<g transform="matrix(1.8182 0 0 1.8753 36.1488 -242.9208)" id="OBJECTS">
<polygon style="stroke: none; stroke-width: 1; stroke-dasharray: none; stroke-linecap: butt; stroke-dashoffset: 0; stroke-linejoin: miter; stroke-miterlimit: 4; is-custom-font: none; font-file-url: none; fill: rgb(255,98,36); fill-rule: nonzero; opacity: 1;" points="5.0555,2.9195 5.0555,-2.9185 -0.0005,-5.8375 -5.0555,-2.9185 -5.0555,2.9195 -0.0005,5.8375 "/>
</g>
		<g transform="matrix(1.8182 0 0 1.8753 98.5001 -165.2125)" id="OBJECTS">
<path style="stroke: none; stroke-width: 1; stroke-dasharray: none; stroke-linecap: butt; stroke-dashoffset: 0; stroke-linejoin: miter; stroke-miterlimit: 4; is-custom-font: none; font-file-url: none; fill: rgb(255,98,36); fill-rule: nonzero; opacity: 1;" transform=" translate(-307.6777, -156.863)" d="M 316.476 147.43 c -4.751 -2.366 -10.467 -1.432 -14.223 2.324 c -4.636 4.636 -4.79 12.067 -0.49 16.906 l -1.853 -0.22 c -0.224 -0.027 -0.428 0.133 -0.455 0.358 c -0.027 0.225 0.134 0.428 0.358 0.455 l 2.823 0.335 c 0.112 0.014 0.219 -0.02 0.302 -0.085 c 0.082 -0.065 0.14 -0.161 0.153 -0.273 l 0.325 -2.731 c 0.027 -0.225 -0.133 -0.428 -0.358 -0.455 c -0.225 -0.027 -0.428 0.134 -0.455 0.358 l -0.207 1.739 c -4.038 -4.517 -3.901 -11.472 0.435 -15.809 c 3.506 -3.506 8.843 -4.379 13.279 -2.171 c 0.202 0.102 0.448 0.018 0.549 -0.184 C 316.761 147.776 316.678 147.531 316.476 147.43 z" stroke-linecap="round"/>
</g>
		<g transform="matrix(1.8182 0 0 1.8753 111.1765 -158.1189)" id="OBJECTS">
<path style="stroke: none; stroke-width: 1; stroke-dasharray: none; stroke-linecap: butt; stroke-dashoffset: 0; stroke-linejoin: miter; stroke-miterlimit: 4; is-custom-font: none; font-file-url: none; fill: rgb(255,98,36); fill-rule: nonzero; opacity: 1;" transform=" translate(-314.6497, -160.6457)" d="M 305.851 170.079 c 4.751 2.366 10.467 1.432 14.223 -2.324 c 4.636 -4.636 4.791 -12.067 0.49 -16.906 l 1.853 0.22 c 0.225 0.027 0.428 -0.134 0.455 -0.358 c 0.027 -0.225 -0.134 -0.428 -0.358 -0.455 l -2.823 -0.336 c -0.112 -0.013 -0.219 0.02 -0.301 0.085 c -0.082 0.065 -0.14 0.161 -0.153 0.273 l -0.325 2.731 c -0.027 0.224 0.133 0.428 0.358 0.455 c 0.225 0.027 0.428 -0.133 0.455 -0.358 l 0.207 -1.739 c 4.038 4.518 3.901 11.472 -0.435 15.809 c -3.506 3.506 -8.843 4.379 -13.279 2.171 c -0.202 -0.102 -0.448 -0.018 -0.549 0.184 C 305.566 169.733 305.649 169.978 305.851 170.079 z" stroke-linecap="round"/>
</g>
		<g transform="matrix(1.8182 0 0 1.8753 226.8603 -101.932)" id="OBJECTS">
<path style="stroke: none; stroke-width: 1; stroke-dasharray: none; stroke-linecap: butt; stroke-dashoffset: 0; stroke-linejoin: miter; stroke-miterlimit: 4; is-custom-font: none; font-file-url: none; fill: rgb(255,98,36); fill-rule: nonzero; opacity: 1;" transform=" translate(-378.2755, -190.608)" d="M 415.312 193.053 h -74.073 c -1.35 0 -2.445 -1.095 -2.445 -2.445 l 0 0 c 0 -1.35 1.094 -2.445 2.445 -2.445 h 74.073 c 1.35 0 2.445 1.094 2.445 2.445 l 0 0 C 417.756 191.959 416.662 193.053 415.312 193.053 z" stroke-linecap="round"/>
</g>
		<g transform="matrix(1.8182 0 0 1.8753 202.8128 -82.0035)" id="OBJECTS">
<path style="stroke: none; stroke-width: 1; stroke-dasharray: none; stroke-linecap: butt; stroke-dashoffset: 0; stroke-linejoin: miter; stroke-miterlimit: 4; is-custom-font: none; font-file-url: none; fill: rgb(32,195,197); fill-rule: nonzero; opacity: 1;" transform=" translate(-365.0495, -201.235)" d="M 388.861 203.68 h -47.623 c -1.35 0 -2.445 -1.095 -2.445 -2.445 l 0 0 c 0 -1.35 1.094 -2.445 2.445 -2.445 h 47.623 c 1.35 0 2.445 1.094 2.445 2.445 l 0 0 C 391.306 202.586 390.211 203.68 388.861 203.68 z" stroke-linecap="round"/>
</g>
		<g transform="matrix(1.8182 0 0 1.8753 202.8128 -60.6068)" id="OBJECTS">
<path style="stroke: none; stroke-width: 1; stroke-dasharray: none; stroke-linecap: butt; stroke-dashoffset: 0; stroke-linejoin: miter; stroke-miterlimit: 4; is-custom-font: none; font-file-url: none; fill: rgb(32,195,197); fill-rule: nonzero; opacity: 1;" transform=" translate(-365.0495, -212.645)" d="M 388.861 215.09 h -47.623 c -1.35 0 -2.445 -1.094 -2.445 -2.445 l 0 0 c 0 -1.35 1.094 -2.445 2.445 -2.445 h 47.623 c 1.35 0 2.445 1.094 2.445 2.445 l 0 0 C 391.306 213.995 390.211 215.09 388.861 215.09 z" stroke-linecap="round"/>
</g>
		<g transform="matrix(1.8182 0 0 1.8753 -218.3164 -178.1052)" id="OBJECTS">
<path style="stroke: none; stroke-width: 1; stroke-dasharray: none; stroke-linecap: butt; stroke-dashoffset: 0; stroke-linejoin: miter; stroke-miterlimit: 4; is-custom-font: none; font-file-url: none; fill: rgb(32,195,197); fill-rule: nonzero; opacity: 1;" transform=" translate(-133.4285, -149.988)" d="M 152.667 152.433 H 114.19 c -1.35 0 -2.445 -1.095 -2.445 -2.445 l 0 0 c 0 -1.35 1.094 -2.445 2.445 -2.445 h 38.477 c 1.35 0 2.445 1.094 2.445 2.445 l 0 0 C 155.111 151.339 154.017 152.433 152.667 152.433 z" stroke-linecap="round"/>
</g>
		<g transform="matrix(1.8182 0 0 1.8753 -231.5229 -158.1768)" id="OBJECTS">
<path style="stroke: none; stroke-width: 1; stroke-dasharray: none; stroke-linecap: butt; stroke-dashoffset: 0; stroke-linejoin: miter; stroke-miterlimit: 4; is-custom-font: none; font-file-url: none; fill: rgb(255,98,36); fill-rule: nonzero; opacity: 1;" transform=" translate(-126.165, -160.615)" d="M 138.14 163.06 h -23.95 c -1.35 0 -2.445 -1.095 -2.445 -2.445 l 0 0 c 0 -1.35 1.094 -2.445 2.445 -2.445 h 23.95 c 1.35 0 2.445 1.094 2.445 2.445 l 0 0 C 140.585 161.966 139.49 163.06 138.14 163.06 z" stroke-linecap="round"/>
</g>
		<g transform="matrix(1.8182 0 0 1.8753 -231.5229 -136.78)" id="OBJECTS">
<path style="stroke: none; stroke-width: 1; stroke-dasharray: none; stroke-linecap: butt; stroke-dashoffset: 0; stroke-linejoin: miter; stroke-miterlimit: 4; is-custom-font: none; font-file-url: none; fill: rgb(255,98,36); fill-rule: nonzero; opacity: 1;" transform=" translate(-126.165, -172.025)" d="M 138.14 174.47 h -23.95 c -1.35 0 -2.445 -1.095 -2.445 -2.445 l 0 0 c 0 -1.35 1.094 -2.445 2.445 -2.445 h 23.95 c 1.35 0 2.445 1.094 2.445 2.445 l 0 0 C 140.585 173.375 139.49 174.47 138.14 174.47 z" stroke-linecap="round"/>
</g>
		<g transform="matrix(1.8182 0 0 1.8753 207.8088 174.138)" id="OBJECTS">
<path style="stroke: none; stroke-width: 1; stroke-dasharray: none; stroke-linecap: butt; stroke-dashoffset: 0; stroke-linejoin: miter; stroke-miterlimit: 4; is-custom-font: none; font-file-url: none; fill: rgb(22,151,153); fill-rule: nonzero; opacity: 1;" transform=" translate(-367.7974, -337.8235)" d="M 381.94 329.655 c -2.398 6.957 -5.263 13.03 -8.259 18.514 c -10.354 18.915 -22.377 30.947 -22.827 48.585 c 0 0 -3.732 -16.615 -0.737 -35.547 c 1.678 -10.632 5.476 -21.993 13.243 -31.552 c 21.616 -26.584 18.416 -50.762 18.416 -50.762 S 392.613 298.724 381.94 329.655 z" stroke-linecap="round"/>
</g>
		<g transform="matrix(1.8182 0 0 1.8753 211.2598 155.0635)" id="OBJECTS">
<path style="stroke: none; stroke-width: 1; stroke-dasharray: none; stroke-linecap: butt; stroke-dashoffset: 0; stroke-linejoin: miter; stroke-miterlimit: 4; is-custom-font: none; font-file-url: none; fill: rgb(0,0,0); fill-rule: nonzero; opacity: 0.25;" transform=" translate(-369.6955, -327.6521)" d="M 356.472 376.064 c -0.317 -2.205 -0.231 -4.351 -0.029 -6.506 c 0.213 -2.147 0.599 -4.275 1.151 -6.355 c 1.072 -4.171 2.665 -8.19 4.6 -12.02 c 0.932 -1.936 2.045 -3.774 3.133 -5.621 l 3.48 -5.374 c 2.218 -3.613 4.089 -7.445 5.664 -11.396 c 1.588 -3.946 2.925 -7.996 4.047 -12.105 c 1.133 -4.106 2.06 -8.271 2.79 -12.47 c 0.733 -4.198 1.269 -8.434 1.534 -12.689 c 0.127 -2.127 0.186 -4.261 0.094 -6.391 c -0.053 -1.064 -0.12 -2.13 -0.293 -3.182 c -0.175 -1.046 -0.37 -2.112 -0.867 -3.064 c 0.513 0.944 0.727 2.01 0.919 3.055 c 0.191 1.052 0.275 2.119 0.346 3.185 c 0.127 2.133 0.103 4.273 0.011 6.407 c -0.186 4.27 -0.69 8.522 -1.376 12.74 c -0.686 4.219 -1.57 8.406 -2.663 12.541 c -1.082 4.137 -2.38 8.222 -3.936 12.212 c -1.543 3.994 -3.387 7.882 -5.595 11.569 l -3.449 5.393 c -1.071 1.831 -2.169 3.652 -3.083 5.567 c -1.902 3.789 -3.461 7.756 -4.504 11.857 c -0.534 2.046 -0.909 4.132 -1.141 6.228 c -0.218 2.084 -0.305 4.239 -0.029 6.266 l 0.005 0.038 c 0.03 0.224 -0.126 0.43 -0.35 0.46 C 356.709 376.441 356.504 376.286 356.472 376.064 z" stroke-linecap="round"/>
</g>
		<g transform="matrix(1.8182 0 0 1.8753 196.0283 239.0922)" id="OBJECTS">
<path style="stroke: none; stroke-width: 1; stroke-dasharray: none; stroke-linecap: butt; stroke-dashoffset: 0; stroke-linejoin: miter; stroke-miterlimit: 4; is-custom-font: none; font-file-url: none; fill: rgb(0,0,0); fill-rule: nonzero; opacity: 0.25;" transform=" translate(-361.3182, -372.4615)" d="M 373.682 348.169 c -10.354 18.915 -22.377 30.947 -22.827 48.585 c 0 0 -3.732 -16.615 -0.737 -35.547 C 356.829 358.465 366.266 353.996 373.682 348.169 z" stroke-linecap="round"/>
</g>
		<g transform="matrix(1.8182 0 0 1.8753 212.7428 241.8419)" id="OBJECTS">
<path style="stroke: none; stroke-width: 1; stroke-dasharray: none; stroke-linecap: butt; stroke-dashoffset: 0; stroke-linejoin: miter; stroke-miterlimit: 4; is-custom-font: none; font-file-url: none; fill: rgb(32,195,197); fill-rule: nonzero; opacity: 1;" transform=" translate(-370.511, -373.9275)" d="M 356.856 415.426 c 0 0 -7.561 -12.927 10.332 -28.879 c 17.893 -15.952 31.896 -37.049 29.173 -54.118 c -17.115 19.884 -62.626 48.08 -49.789 82.994 L 356.856 415.426 z" stroke-linecap="round"/>
</g>
		<g transform="matrix(1.8182 0 0 1.8753 217.3351 242.2609)" id="OBJECTS">
<path style="stroke: none; stroke-width: 1; stroke-dasharray: none; stroke-linecap: butt; stroke-dashoffset: 0; stroke-linejoin: miter; stroke-miterlimit: 4; is-custom-font: none; font-file-url: none; fill: rgb(0,0,0); fill-rule: nonzero; opacity: 0.25;" transform=" translate(-373.0368, -374.1509)" d="M 396.362 332.429 c -1.708 3.767 -3.997 7.243 -6.461 10.558 c -2.491 3.301 -5.229 6.413 -8.146 9.347 c -2.889 2.964 -6.081 5.618 -9.244 8.268 c -3.144 2.664 -5.993 5.673 -8.533 8.914 c -5.077 6.482 -9.047 13.862 -11.439 21.732 c -1.168 3.936 -1.971 8 -2.084 12.096 c -0.12 4.078 0.402 8.228 2.035 11.954 c 0.091 0.207 -0.002 0.448 -0.209 0.54 c -0.207 0.091 -0.448 -0.002 -0.54 -0.209 l -0.002 -0.004 c -1.665 -3.888 -2.156 -8.15 -2 -12.305 c 0.15 -4.173 1 -8.282 2.212 -12.251 c 2.483 -7.933 6.544 -15.327 11.705 -21.807 c 2.583 -3.24 5.473 -6.242 8.656 -8.895 c 3.192 -2.63 6.387 -5.241 9.297 -8.178 c 2.934 -2.903 5.693 -5.987 8.208 -9.264 C 392.308 339.635 394.623 336.181 396.362 332.429 z" stroke-linecap="round"/>
</g>
		<g transform="matrix(1.8182 0 0 1.8753 -272.6264 131.1688)" id="OBJECTS">
<path style="stroke: none; stroke-width: 1; stroke-dasharray: none; stroke-linecap: butt; stroke-dashoffset: 0; stroke-linejoin: miter; stroke-miterlimit: 4; is-custom-font: none; font-file-url: none; fill: rgb(22,151,153); fill-rule: nonzero; opacity: 1;" transform=" translate(-103.558, -314.9105)" d="M 100.057 321.779 c 0 0 -9.336 -8.508 -14.295 -29.781 c 28.59 24.238 35.592 45.825 35.592 45.825 L 100.057 321.779 z" stroke-linecap="round"/>
</g>
		<g transform="matrix(1.8182 0 0 1.8753 -284.7796 121.8265)" id="OBJECTS">
<path style="stroke: none; stroke-width: 1; stroke-dasharray: none; stroke-linecap: butt; stroke-dashoffset: 0; stroke-linejoin: miter; stroke-miterlimit: 4; is-custom-font: none; font-file-url: none; fill: rgb(0,0,0); fill-rule: nonzero; opacity: 0.25;" transform=" translate(-96.8738, -309.9287)" d="M 85.762 291.998 c 3.977 5.691 7.867 11.444 11.652 17.268 c 1.891 2.913 3.743 5.852 5.542 8.827 c 1.789 2.981 3.54 5.988 4.993 9.188 c 0.093 0.206 0.003 0.448 -0.203 0.542 c -0.206 0.093 -0.448 0.002 -0.542 -0.203 c -0.001 -0.002 -0.002 -0.004 -0.002 -0.005 l -0.006 -0.014 c -1.357 -3.151 -3.045 -6.194 -4.769 -9.196 c -1.735 -3.001 -3.526 -5.973 -5.358 -8.919 C 93.401 303.593 89.626 297.766 85.762 291.998 z" stroke-linecap="round"/>
</g>
		<g transform="matrix(1.8182 0 0 1.8753 -271.1603 159.2568)" id="OBJECTS">
<path style="stroke: none; stroke-width: 1; stroke-dasharray: none; stroke-linecap: butt; stroke-dashoffset: 0; stroke-linejoin: miter; stroke-miterlimit: 4; is-custom-font: none; font-file-url: none; fill: rgb(32,195,197); fill-rule: nonzero; opacity: 1;" transform=" translate(-104.3643, -329.8885)" d="M 120.772 333.739 c -5.14 -4.633 -12.752 -9.224 -19.995 -14.168 c -9.633 -6.572 -18.612 -13.791 -20.274 -22.606 c -3.781 31.814 33.222 46.138 33.222 46.138 l 0.074 0.106 l 13.439 19.603 C 127.238 362.811 132.73 344.535 120.772 333.739 z" stroke-linecap="round"/>
</g>
		<g transform="matrix(1.8182 0 0 1.8753 -271.6855 159.6422)" id="OBJECTS">
<path style="stroke: none; stroke-width: 1; stroke-dasharray: none; stroke-linecap: butt; stroke-dashoffset: 0; stroke-linejoin: miter; stroke-miterlimit: 4; is-custom-font: none; font-file-url: none; fill: rgb(0,0,0); fill-rule: nonzero; opacity: 0.25;" transform=" translate(-104.0755, -330.094)" d="M 80.503 296.965 c 0.023 3.546 1.053 7.015 2.545 10.201 c 1.556 3.169 3.668 6.053 6.184 8.521 c 2.514 2.478 5.415 4.515 8.377 6.437 c 2.96 1.929 5.969 3.791 8.896 5.786 c 5.835 3.965 11.429 8.593 15.341 14.599 c 3.97 5.959 5.802 13.185 5.802 20.303 c 0.001 0.226 -0.181 0.41 -0.407 0.411 c -0.226 0.001 -0.41 -0.181 -0.411 -0.407 v -0.006 c 0.064 -6.994 -1.656 -14.072 -5.499 -19.969 c -3.787 -5.941 -9.278 -10.587 -15.057 -14.595 c -2.898 -2.017 -5.887 -3.906 -8.833 -5.867 c -2.947 -1.952 -5.846 -4.029 -8.352 -6.548 c -2.507 -2.507 -4.602 -5.427 -6.132 -8.622 C 81.488 303.998 80.492 300.511 80.503 296.965 z" stroke-linecap="round"/>
</g>
		<g transform="matrix(1.8182 0 0 1.8753 11.6366 332.9701)" id="OBJECTS">
<path style="stroke: none; stroke-width: 1; stroke-dasharray: none; stroke-linecap: butt; stroke-dashoffset: 0; stroke-linejoin: miter; stroke-miterlimit: 4; is-custom-font: none; font-file-url: none; fill: rgb(234,249,248); fill-rule: nonzero; opacity: 1;" transform=" translate(-259.9015, -422.523)" d="M 384.206 429.622 h -248.61 c -3.921 0 -7.099 -3.178 -7.099 -7.099 l 0 0 c 0 -3.921 3.179 -7.099 7.099 -7.099 h 248.61 c 3.921 0 7.1 3.178 7.1 7.099 l 0 0 C 391.306 426.443 388.127 429.622 384.206 429.622 z" stroke-linecap="round"/>
</g>
</g>
</g>
</svg>